/* XPM */
static char *_40eefb1857040a8942d3e65c62a966bsh2NEecRDPjKjY2f[] = {
/* columns rows colors chars-per-pixel */
"48 48 170 2 ",
"   c None",
".  c #4D3E1E",
"X  c #5A4824",
"o  c #5D422B",
"O  c #564834",
"+  c #63472D",
"@  c #664A2F",
"#  c #6F582B",
"$  c #755D2D",
"%  c #6B4D32",
"&  c #6F5133",
"*  c #69583F",
"=  c #735335",
"-  c #7A5B35",
";  c #795738",
":  c #7D5A3A",
">  c #7A612F",
",  c #7B6231",
"<  c #6C5B42",
"1  c #746246",
"2  c #776448",
"3  c #7E6A4B",
"4  c #825D3C",
"5  c #806137",
"6  c #866A35",
"7  c #8A6E36",
"8  c #85623C",
"9  c #8B653F",
"0  c #8C6B3B",
"q  c #916D3E",
"w  c #8D7137",
"e  c #8F7238",
"r  c #93743B",
"t  c #97793C",
"y  c #9B7C3E",
"u  c #866241",
"i  c #8D6642",
"p  c #8F6A46",
"a  c #826D4E",
"s  c #936B44",
"d  c #986F46",
"f  c #9B7542",
"g  c #9D7842",
"h  c #93744A",
"j  c #867051",
"k  c #8C7654",
"l  c #8E7856",
"z  c #907957",
"x  c #967E5A",
"c  c #A37D45",
"v  c #A57B4A",
"b  c #A87D4B",
"n  c #A1803F",
"m  c #9A815D",
"M  c #A48341",
"N  c #A98444",
"B  c #AF8C45",
"V  c #AD844A",
"C  c #A9894D",
"Z  c #B18D46",
"A  c #B0854D",
"S  c #B58C4A",
"D  c #BA8F4D",
"F  c #B69047",
"G  c #B79148",
"H  c #BB944A",
"J  c #BF984B",
"K  c #A68259",
"L  c #AA855B",
"P  c #B1895E",
"I  c #BC935A",
"U  c #A58B64",
"Y  c #B38D62",
"T  c #AB9068",
"R  c #B49064",
"E  c #BE9566",
"W  c #B2966C",
"Q  c #B6996E",
"!  c #BA9A6C",
"~  c #BA9D71",
"^  c #BFA074",
"/  c #C39B4D",
"(  c #C99F4F",
")  c #C39653",
"_  c #C59B51",
"`  c #CA9E52",
"'  c #C49F58",
"]  c #C9A04F",
"[  c #CDA351",
"{  c #D2A653",
"}  c #D5A954",
"|  c #DBAE56",
" . c #D6AA59",
".. c #DBAD5C",
"X. c #DDB157",
"o. c #DFB258",
"O. c #E2B459",
"+. c #E7B85B",
"@. c #EBBB5D",
"#. c #F0BF5E",
"$. c #C89F66",
"%. c #C49D68",
"&. c #D4AB63",
"*. c #DEB468",
"=. c #C6A475",
"-. c #CCA775",
";. c #CFA876",
":. c #C6A778",
">. c #CBAB7B",
",. c #D2AD7A",
"<. c #DCB471",
"1. c #D0B07E",
"2. c #E3B760",
"3. c #E6BA66",
"4. c #EEBF61",
"5. c #F1BF61",
"6. c #E6BC72",
"7. c #E8BF77",
"8. c #F2C15F",
"9. c #EFC064",
"0. c #EFC168",
"q. c #F3C263",
"w. c #F9C763",
"e. c #FFCD66",
"r. c #F4C66D",
"t. c #FECD6B",
"y. c #EBC27C",
"u. c #F4C775",
"i. c #F7C975",
"p. c #FECE73",
"a. c #F6C97A",
"s. c #F9CC7B",
"d. c #FED07D",
"f. c #D9B784",
"g. c #DDBA86",
"h. c #D5B381",
"j. c #E2BB84",
"k. c #E2BE89",
"l. c #E6C084",
"z. c #E7C28C",
"x. c #EAC48D",
"c. c #F4CB83",
"v. c #F9CE85",
"b. c #F4CC8B",
"n. c #FACF8A",
"m. c #FED184",
"M. c #FBD18C",
"N. c #EEC890",
"B. c #F4CD94",
"V. c #F7D096",
"C. c #F8D092",
"Z. c #FED491",
"A. c #FBD397",
"S. c #FAD295",
"D. c #FCD497",
"F. c #FED597",
"G. c #FED595",
"H. c #FCD394",
"J. c #FBD398",
"K. c #FDD599",
"L. c #FCD599",
"P. c #FED698",
"I. c #FDD59A",
"U. c #FED69A",
"Y. c #FFD79A",
"T. c #FFD79B",
"R. c #FED69B",
"E. c #FED69A",
"W. c #FFD89B",
"Q. c #FFD89C",
/* pixels */
"                                                                                                ",
"                                              O                                                 ",
"                                            U >.>.W k                                           ",
"                                        1 T k.T.T.z.1.~ m                                       ",
"                                      3 Q B.T.D.T.T.W.A.k.~ m                                   ",
"                                    a >.A.T.T.T.J.T.T.T.T.T.N.:.l                               ",
"                                  k g.A.A.T.D.T.D.T.T.J.T.J.T.J.B.:.k                           ",
"                                U z.A.b.y.a.d.m.m.M.D.T.T.T.T.T.T.V.x.^ <                       ",
"                              Q z.A.6.&.2.w.t.t.t.t.p.G.R.T.T.T.T.D.T.N.f.m                     ",
"                          < Q x.D.y. .{ @.e.e.t.e.e.e.s.D.T.T.L.T.T.T.T.J.g.W                   ",
"                          Q x.T.c. ._ _ { ......q.e.e.t.v.L.L.T.T.J.T.D.W.W.x.Q <               ",
"                        U B.T.T.<.G V v v v v b ) +.e.e.i.G.L.T.T.T.J.T.T.T.W.B.~ 2             ",
"                        f.T.T.A.$.d s s s s s s d b +.e.q.C.T.T.T.T.T.T.T.T.T.T.V.^ *           ",
"                      x N.T.T.A.E s s s s s s s s d A #.3.A.T.L.D.T.D.T.A.T.D.T.T.V.~           ",
"                      ~ T.T.T.T.;.s i i s s s d s s d ) 6.L.L.T.T.D.H.D.T.T.D.T.T.T.B.T         ",
"                    j z.T.T.D.T.N.L 4 9 u i i i i s i I b.T.T.L.M.d.t.t.p.v.A.T.T.T.Q.x.x       ",
"                    >.A.D.T.J.T.L.j.Y p 4 4 4 4 4 p P j.G.T.L.b.*.2.O.w.t.t.v.D.T.T.T.T.h.2     ",
"                a ~ B.T.T.T.T.T.T.R.x.=.L K b K L ! k.L.L.L.L.<.A V A )  .5.r.G.D.T.T.D.A.W     ",
"          j k m :.B.T.T.J.T.J.T.T.L.T.T.N.k.x.k.x.L.R.R.L.T.L.%.4 4 4 8 d _ +.B.T.T.T.T.T.z.j   ",
"        m g.z.B.T.T.T.J.T.T.T.T.L.T.T.L.T.L.T.T.L.R.R.L.T.T.R.-.u : : : 4 s &.G.A.T.T.D.T.T.Q   ",
"      3 g.J.T.J.T.T.T.D.T.J.T.D.T.T.L.T.L.T.L.T.T.L.L.T.L.L.T.B.Y : : : : d j.T.T.T.W.T.D.m.]   ",
"      >.J.J.T.T.J.T.T.T.T.T.T.T.T.L.T.T.T.L.T.L.L.T.T.L.T.T.T.T.B.g.-.-.,.x.A.T.T.T.D.H.i.w.(   ",
"    ~ B.T.T.J.T.J.T.J.T.T.J.T.J.L.T.T.L.T.L.T.T.T.L.T.T.T.L.L.T.T.T.V.B.A.T.T.T.A.M.a.r.q.8.(   ",
"  h j.D.T.R.T.T.T.D.T.T.D.T.T.T.T.L.L.T.L.T.T.L.T.T.L.T.L.T.T.L.T.T.Q.R.R.T.D.v.a.r.q.8.q.q./   ",
"  C u.i.s.v.M.H.T.Q.T.R.R.R.T.T.L.T.T.L.T.T.R.R.L.T.L.T.L.L.T.L.T.R.T.C.M.v.a.r.q.8.8.8.8.8./   ",
"  M +.8.8.9.r.a.v.M.M.C.D.T.T.T.R.R.R.T.L.T.R.R.T.L.T.T.T.T.T.L.A.M.v.a.r.8.#.#.8.8.8.8.8.8.G   ",
"  e O.@.@.8.8.8.8.9.r.u.s.v.C.H.G.A.G.G.L.L.L.L.L.L.G.L.L.L.C.v.a.q.#.8.@.@.O.O.+.8.8.8.8.8.F   ",
"  $ X.8.8.9.@.@.@.8.@.q.4.4.9.9.u.u.a.v.n.n.n.n.n.n.n.n.v.u.q.5.4.8.@.8.@.} y q S +.@.@.8.@.F   ",
"    [ @.@.@.8.@.@.@.@.@.@.@.@.@.@.4.4.4.4.4.5.5.4.4.5.4.5.4.@.@.@.@.8.@.@.r = = 8 [ @.@.@.@.Z   ",
"    H @.@.@.@.@.@.@.@.@.@.@.@.@.@.@.@.@.@.@.4.2.4.+.4.@.@.@.@.@.@.@.@.@.[ = % = - V +.@.@.+.N   ",
"    n @.@.@.@.@.@.@.@.4.@.@.@.@.@.5.@.@.@.@.+.@.+.+.@.@.@.+.@.@.+.@.@.@.S % % = : c | @.@.O.M   ",
"    w o.+.+.@.+.@.O.` _ { @.+.@.O.H S | @.+.@.+.@.@.+.@.+.@.@.@.@.@.+.@.c @ = ; 4 c | @.@.O.t   ",
"    , } +.+.@.@.+./ 8 5 c } +.@./ = @ Z O.@.+.+.+.+.@.+.+.+.@.+.+.@.+.@.N % = ; 4 S o.+.+.o.8   ",
"      ] +.+.O.+.} 5 + & : S O.O.t @ = N O.O.+.+.+.+.+.+.+.+.+.+.+.+.+.+.S = ; 4 i _ O.@.+.| $   ",
"      G +.+.+.+.G + @ = : c { o.s % = D O.O.+.+.+.+.+.O.+.+.O.O.+.+.+.+.[ - ; 4 c } O.+.+.|     ",
"      M O.O.O.O.0 o % = : g ( O.c & 8 ` O.O.O.O.O.O.O.+.O.O.+.O.O.O.O.O.O.c 4 f ` X.O.O.O.]     ",
"      r | O.O.o.- o % ; 4 V ( O._ g G } O.O.O.O.O.O.O.O.O.O.O.O.O.O.O.O.O.{ ) / | O.O.O.O./     ",
"      > [ O.O.O.- o % ; u S { | X.[  .o.O.O.O.o.O.O.o.O.o.O.o.O.O.O.o.O.O.O.o.| o.O.O.o.O.G     ",
"        / o.o.o.5 + % ; i ` | o.o.O.o.O.o.o.o.o.O.O.O.O.O.O.o.O.o.O.O.o.O.o.O.O.o.o.o.O.O.N     ",
"        B o.o.o.r + % 4 V | | | o.o.o.o.o.o.o.X.O.| | O.| O.| O.o.o.o.o.o.o.o.o.o.o.o.O.o.t     ",
"        r | X.X.H = - f ` | | | X.X.X.X.X.X.X.X.X.o.X.o.o.o.o.o.o.o.o.o.o.o.o.o.o.o.o.o.| 6     ",
"        > { | X.} D S { | | | | | X.| X.| X.X.X.| | | | | | | | | | | | | | | o.| | | o.] >     ",
"          F } X.o.} ] } | | | | X.X.} | } X.| | | | | | | | | | | | | | | | | | o.| | | G       ",
"          $ 6 r M H / } | | | | } X.X.X.X.} } X.| | | | | | | | | | | | | o.o.] J n e 7 $       ",
"                  6 r t c Z J / [ { [ } X.X.X.o.X.X.X.X.X.X.| | { ] ] / S n y r 7               ",
"                        X > w t y M M N B B B Z B B B B Z Z B B n n t e ,                       ",
"                                        X . . . . . . . . . . .                                 ",
"                                                                                                "
};
