/* XPM */
static char *result[] = {
/* columns rows colors chars-per-pixel */
"48 48 111 2 ",
"   c #060503",
".  c #090705",
"X  c #0D0A07",
"o  c #100B07",
"O  c #130E0A",
"+  c #17110B",
"@  c #1B140C",
"#  c #191512",
"$  c #241C11",
"%  c #282014",
"&  c #362719",
"*  c #3F2D1D",
"=  c #48391E",
"-  c #4A3D25",
";  c #5E4C2C",
":  c #4D453A",
">  c #604C27",
",  c #61462D",
"<  c #614A29",
"1  c #6F582D",
"2  c #6E4F33",
"3  c #655332",
"4  c #735335",
"5  c #725C33",
"6  c #7B5A37",
"7  c #7D5C38",
"8  c #79653D",
"9  c #7F693F",
"0  c #5B5447",
"q  c #655E50",
"w  c #7E7463",
"e  c #896D36",
"r  c #84623A",
"t  c #8C673F",
"y  c #8D6A3D",
"u  c #916E3D",
"i  c #94763A",
"p  c #9E7E3E",
"a  c #8C6642",
"s  c #856E43",
"d  c #906743",
"f  c #936B44",
"g  c #967145",
"h  c #997341",
"j  c #9F7C42",
"k  c #9C744A",
"l  c #917849",
"z  c #A47A4A",
"x  c #A77E50",
"c  c #A58242",
"v  c #AE8747",
"b  c #AE8A45",
"n  c #A7884C",
"m  c #AF8848",
"M  c #B18E47",
"N  c #B38B4A",
"B  c #B59047",
"V  c #B79248",
"C  c #BB944A",
"Z  c #AC8F56",
"A  c #BF9251",
"S  c #B5965B",
"D  c #BB9C5E",
"F  c #968B77",
"G  c #9E937E",
"H  c #C49B4E",
"J  c #C29653",
"K  c #C9A14F",
"L  c #CDA351",
"P  c #CFA85C",
"I  c #D1A653",
"U  c #D5AA54",
"Y  c #DAAE56",
"T  c #D1A358",
"R  c #DBAD5B",
"E  c #DCB057",
"W  c #DEB158",
"Q  c #E2B459",
"!  c #E7B85B",
"~  c #EBBB5C",
"^  c #C4A362",
"/  c #CFA666",
"(  c #CFAC68",
")  c #D8AE67",
"_  c #D2AD69",
"`  c #DAB064",
"'  c #DBB46D",
"]  c #E6BB65",
"[  c #EFBE60",
"{  c #E4BC72",
"}  c #EFC062",
"|  c #ECC36F",
" . c #F2C264",
".. c #F4C66B",
"X. c #F5C86C",
"o. c #FECC69",
"O. c #E7C074",
"+. c #EDC474",
"@. c #EFC778",
"#. c #F7CB73",
"$. c #F9CD74",
"%. c #F3CA7A",
"&. c #FBCF78",
"*. c #FFD176",
"=. c #FDD27D",
"-. c #A59984",
";. c #A89C86",
":. c #B9AC94",
">. c #FFD480",
",. c #D4C5AA",
"<. c None",
/* pixels */
"<.<.<.<.<.<.<.<.<.<.<.<.<.<.<.<.<.<.<.<.<.<.<.<.<.<.<.<.<.<.<.<.<.<.<.<.<.<.<.<.<.<.<.<.<.<.<.<.",
"<.<.<.<.<.. . X X X X X X X . <.<.<.<.<.<.<.<.<.<.<.<.<.<.<.<.<.<.<.<.<.<.<.<.<.<.<.<.<.<.<.<.<.",
"<.<.<.# . X o o X X X X X X X X . <.<.<.<.<.<.<.<.<.<.<.<.<.<.<.<.<.<.<.<.<.<.<.<.<.<.<.<.<.<.<.",
"<.<.:.q X o X X O X X X X X X X X X . <.<.<.<.;.,.w O X <.<.<.<.<.<.<.<.<.<.<.<.<.<.<.<.<.<.<.<.",
"<.-.,.F O X X X X X X X X X X X X X X . <.<.<.<.-.0 O O O O X <.<.<.<.<.<.<.<.<.<.<.<.<.<.<.<.<.",
"<.<.<.0 o X X X X X X X X X O X X X . . <.<.<.<.<.O O O O O O O o <.<.<.<.<.<.<.<.<.<.<.<.<.<.<.",
"<.<.<.<.. X o X O X X X X X X X X X <.<.<.<.<.<.<.X O O O + O + O O <.<.<.<.<.<.<.<.<.<.<.<.<.<.",
"<.<.<.<.<.X X X X X X X X X X X X <.<.<.<.<.<.<.<.<.O O O O O O + O O X <.<.<.<.<.<.<.<.<.<.<.<.",
"<.<.<.<.<.. o X X X X X X X X X o <.<.<.<.<.<.<.<.<.o + o O O + + O O O X <.<.<.<.<.<.<.<.<.<.<.",
"<.<.<.<.<.. X o X X X o X X X X X . <.<.<.<.<.<.<.<.<.o + + + o O O O + + X <.<.<.<.<.<.<.<.<.<.",
"<.<.<.<.<.. o o X X X X X X X X X X <.<.<.<.<.<.<.<.<.o O + + O O + O O + O X <.<.<.<.<.<.<.<.<.",
"<.<.<.<.<.X X . . X . X X X . X . . X   <.<.<.<.<.<.<.o O O O O O O + + + O O <.<.<.<.<.<.<.<.<.",
"<.<.<.<.<.. . . X X X X X o X X o X .   <.<.<.<.<.<.<.<.O O O + O O + O O O O O <.<.<.<.<.<.<.<.",
"<.<.<.<.<.<.<.<.<.<.. o X X X o X X <.<.<.<.<.<.<.<.<.o + O O O + O O O O O O + o <.<.<.<.<.<.<.",
"<.<.<.<.<.<.<.<.<.<.<.<.X X X X o . <.<.<.<.<.<.<.<.X o + O O O O O O O + O O O O o <.<.<.<.<.<.",
"<.<.<.<.<.<.<.<.<.<.<.<.<.X X X X X <.<.<.<.<.<.<.<.X O O O O + + O O + O O O O O O <.<.<.<.<.<.",
"<.<.<.<.<.<.<.<.<.<.<.<.<.<.X X X X <.D O.%.O._ D <.+ X O + o + O + O O + O O O O O o <.<.<.<.<.",
"<.<.<.<.<.<.<.<.<.<.<.<.<.<.. X $ 8 ' =.=.=.=.=.=.@.e o o + + O O O O O O O + + O + O <.<.<.<.<.",
"<.<.<.<.<.<.<.<.<.<.<.<.<.<.# ; P +.] ..o.o.o.&.>.>.( $ + o X + O + + O O + O o + O O o <.<.<.<.",
"<.<.<.<.<.<.<.<.<.<.<.<.<.<.D %.O.A N A J T [ o.=.=.%.: O + o X O O O O o <.<.<.o O + O <.<.<.<.",
"<.<.<.<.<.<.<.<.<.<.<.<.<.Z &.>.{ f d d f f z R %.>.=.3 X + O X o + + + <.<.<.<.<.o O O O <.<.<.",
"<.<.<.<.<.<.<.<.<.<.<.<.<.{ >.>.=./ k d a f x _ =.&.` ; O O O + o + O o <.<.<.<.<.<.o + O <.<.<.",
"<.<.<.<.<.<.<.<.<.<.S ^ +.>.>.=.>.>.@.' _ ' >.>.>.@.g & O + + O o o o + <.<.<.<.<.<.<.o O o <.<.",
"<.<.<.<.<.<.<.<.Z O.=.>.>.>.>.>.>.>.>.>.>.>.>.>.>.=.S $ o O O O + + o o <.<.<.<.<.<.<.<.O o <.<.",
"<.<.<.<.<.<.<.n ..=.=.=.>.>.=.>.>.>.>.>.>.>.>.>.>.=.s + + + O O O O O o <.<.<.<.<.<.<.<.<.o <.<.",
"<.<.<.<.<.<.<.B [  . .X.#.*.&.=.&.>.>.>.>.>.>.>.@.l $ o + o O + @ + O X X <.<.<.<.<.<.<.<.X X <.",
"<.<.<.<.<.<.<.<.Q ~ [ ~ ~ ~  .} [ ............P 5 % + X o + @ ; c i > @ X <.<.<.<.<.<.<.<.<.X <.",
"<.<.<.<.<.<.<.<.I ~ ~ ~ Q Y Q ~ ! R Q ! ~ ~ ~ W L b i 1 - @ * y I [ U <.<.<.<.<.<.<.<.<.<.<.<.<.",
"<.<.<.<.<.<.<.<.V ! ! Y u 7 c Q H 6 m ! ! ! ! ! ~ ~ ~ ! I 4 2 i K ! U <.<.<.<.<.<.<.<.<.<.<.<.<.",
"<.<.<.<.<.<.<.<.p Q ! N , 4 a H C r N Q Q ! Q ! Q ! Q Q Q N N H E ! K <.<.<.<.<.<.<.<.<.<.<.<.<.",
"<.<.<.<.<.<.<.<.<.I Q j , 4 f H Y I R Q Q W Q Q Q Q Q Q Q Q Q Q Q Q C <.<.<.<.<.<.<.<.<.<.<.<.<.",
"<.<.<.<.<.<.<.<.<.V W H t u v U Y Q Y Y W W Y W W Y Y Q Y W Y Q Q E c <.<.<.<.<.<.<.<.<.<.<.<.<.",
"<.<.<.<.<.<.<.<.<.e V H H H L U Y Y Y E Y Y Y E Y Y Y Y Y U L K H B <.<.<.<.<.<.<.<.<.<.<.<.<.<.",
"<.<.<.<.<.<.<.<.<.<.<.<.<.<.i p c b b B B V B B V B b c p i <.<.<.<.<.<.<.<.<.<.<.<.<.<.<.<.<.<.",
"<.<.<.<.<.<.<.<.<.<.<.<.<.<.<.<.<.<.<.<.<.<.<.<.<.<.<.<.<.<.<.<.<.<.<.<.<.<.<.<.<.<.<.<.<.<.<.<.",
"<.<.<.<.<.<.<.<.<.<.<.<.<.<.<.<.<.<.<.<.<.<.<.<.<.<.<.<.<.<.<.<.<.<.<.<.<.<.<.<.<.<.<.<.<.<.<.<.",
"<.<.<.<.<.<.<.<.<.<.<.<.<.<.<.<.<.<.<.<.<.<.<.<.<.<.<.<.<.<.<.<.<.<.<.<.<.<.<.<.<.<.<.<.<.<.<.<.",
"<.<.<.<.<.<.<.<.<.<.<.<.<.<.<.<.<.<.<.<.<.<.<.<.<.<.<.<.<.<.<.<.<.<.<.<.<.<.<.<.<.<.<.<.<.<.<.<.",
"<.<.<.<.<.<.<.<.<.<.<.<.<.<.<.<.<.<.<.<.<.<.<.<.<.<.<.<.<.<.<.<.<.<.<.<.<.<.<.<.<.<.<.<.<.<.<.<.",
"<.<.<.<.<.<.<.<.<.<.<.<.<.<.<.<.<.<.<.<.<.<.<.<.<.<.<.<.<.<.<.<.<.<.<.<.<.<.<.<.<.<.<.<.<.<.<.<.",
"<.<.<.<.<.<.<.<.<.<.<.<.<.<.<.<.<.<.<.<.<.<.<.<.<.<.<.<.<.<.<.<.<.<.<.<.<.<.<.<.<.<.<.<.<.<.<.<.",
"<.<.<.<.<.<.<.<.<.<.<.<.<.<.<.<.<.<.<.<.<.<.<.<.<.<.<.<.<.<.<.<.<.<.<.<.<.<.<.<.<.<.<.<.<.<.<.<.",
"<.<.<.<.<.<.<.<.<.<.<.<.<.<.<.<.<.<.<.<.<.<.<.<.<.<.<.<.<.<.<.<.<.<.<.<.<.<.<.<.<.<.<.<.<.<.<.<.",
"<.<.<.<.<.<.<.<.<.<.<.<.<.<.<.<.<.<.<.<.<.<.<.<.<.<.<.<.<.<.<.<.<.<.<.<.<.<.<.<.<.<.<.<.<.<.<.<.",
"<.<.<.<.<.<.<.<.<.<.<.<.<.<.<.<.<.<.<.<.<.<.<.<.<.<.<.<.<.<.<.<.<.<.<.<.<.<.<.<.<.<.<.<.<.<.<.<.",
"<.<.<.<.<.<.<.<.<.<.<.<.<.<.<.<.<.<.<.<.<.<.<.<.<.<.<.<.<.<.<.<.<.<.<.<.<.<.<.<.<.<.<.<.<.<.<.<.",
"<.<.<.<.<.<.<.<.<.<.<.<.<.<.<.<.<.<.<.<.<.<.<.<.<.<.<.<.<.<.<.<.<.<.<.<.<.<.<.<.<.<.<.<.<.<.<.<.",
"<.<.<.<.<.<.<.<.<.<.<.<.<.<.<.<.<.<.<.<.<.<.<.<.<.<.<.<.<.<.<.<.<.<.<.<.<.<.<.<.<.<.<.<.<.<.<.<."
};
