/* XPM */
static char *result[] = {
/* columns rows colors chars-per-pixel */
"48 48 113 2 ",
"   c #060503",
".  c #090705",
"X  c #0D0A07",
"o  c #100B07",
"O  c #130E0A",
"+  c #16110B",
"@  c #1A140C",
"#  c #191512",
"$  c #211A0F",
"%  c #251D11",
"&  c #282014",
"*  c #362B1B",
"=  c #3F2D1D",
"-  c #3D321E",
";  c #42311F",
":  c #493A1E",
">  c #493C24",
",  c #513F23",
"<  c #574126",
"1  c #5C4925",
"2  c #4D453A",
"3  c #61462D",
"4  c #6D572C",
"5  c #645232",
"6  c #735236",
"7  c #795937",
"8  c #5B5447",
"9  c #655E50",
"0  c #7E7463",
"q  c #85633A",
"w  c #8C673F",
"e  c #8B6C3B",
"r  c #906C3E",
"t  c #8E7039",
"y  c #92743A",
"u  c #9E7E3E",
"i  c #8D6742",
"p  c #836C41",
"a  c #906743",
"s  c #926B43",
"d  c #8D7446",
"f  c #997444",
"g  c #9A7148",
"h  c #9F784C",
"j  c #A37D44",
"k  c #A27849",
"l  c #A58441",
"z  c #AA8445",
"x  c #AC8944",
"c  c #AE8748",
"v  c #AC894A",
"b  c #B18D46",
"n  c #B0864B",
"m  c #B38B49",
"M  c #B79248",
"N  c #BB944A",
"B  c #BE984B",
"V  c #A98050",
"C  c #BC8F51",
"Z  c #AD9057",
"A  c #AF9258",
"S  c #BF9551",
"D  c #B3955A",
"F  c #BA9A5D",
"G  c #968B77",
"H  c #9E937E",
"J  c #C49C4E",
"K  c #C89E4F",
"L  c #C09353",
"P  c #C9A04F",
"I  c #CEA353",
"U  c #D1A653",
"Y  c #D6AA55",
"T  c #DBAE56",
"R  c #DAAC5A",
"E  c #DDB157",
"W  c #DEB158",
"Q  c #E2B459",
"!  c #E7B85B",
"~  c #ECBC5D",
"^  c #C7A563",
"/  c #CFA866",
"(  c #CFAC68",
")  c #D4AB64",
"_  c #D6AE6A",
"`  c #D9AF68",
"'  c #D4B06A",
"]  c #D9B46D",
"[  c #DEB970",
"{  c #E5BA64",
"}  c #EEBD61",
"|  c #E0B76F",
" . c #E3BB71",
".. c #ECC26F",
"X. c #F2C365",
"o. c #FCCA67",
"O. c #F4C56A",
"+. c #F7C96F",
"@. c #FFCD69",
"#. c #E7C074",
"$. c #ECC375",
"%. c #F7CC76",
"&. c #FACD76",
"*. c #F4CA7A",
"=. c #F9CF7D",
"-. c #FFD175",
";. c #FED27D",
":. c #A59984",
">. c #A89C86",
",. c #B9AC94",
"<. c #FFD480",
"1. c #D4C5AA",
"2. c None",
/* pixels */
"2.2.2.2.2.2.2.2.2.2.2.2.2.2.2.2.2.2.2.2.2.2.2.2.2.2.2.2.2.2.2.2.2.2.2.2.2.2.2.2.2.2.2.2.2.2.2.2.",
"2.2.2.2.2.. . X X X X X X X X 2.2.2.2.2.2.2.2.2.2.2.2.2.2.2.2.2.2.2.2.2.2.2.2.2.2.2.2.2.2.2.2.2.",
"2.2.2.# . o o o X O X X X X X X . 2.2.2.2.2.2.2.2.2.2.2.2.2.2.2.2.2.2.2.2.2.2.2.2.2.2.2.2.2.2.2.",
"2.2.,.9 X X X X X X X X X X X X X X . 2.2.2.2.>.1.0 O o 2.2.2.2.2.2.2.2.2.2.2.2.2.2.2.2.2.2.2.2.",
"2.:.1.G O X X X X X X X X X X X X X X . 2.2.2.2.:.2 O O O O o 2.2.2.2.2.2.2.2.2.2.2.2.2.2.2.2.2.",
"2.2.2.8 o X X X X X X X X O X X X X . . 2.2.2.2.2.O O O O O O O o 2.2.2.2.2.2.2.2.2.2.2.2.2.2.2.",
"2.2.2.2.. X o X X O X X X X X X X X 2.2.2.2.2.2.2.o O O + O O O O O 2.2.2.2.2.2.2.2.2.2.2.2.2.2.",
"2.2.2.2.2.X X X X X X X X X X X X 2.2.2.2.2.2.2.2.2.O O O O O + O O O o 2.2.2.2.2.2.2.2.2.2.2.2.",
"2.2.2.2.2.. o X X X X X X X X X o 2.2.2.2.2.2.2.2.2.o O O O O O O O + O O 2.2.2.2.2.2.2.2.2.2.2.",
"2.2.2.2.2.. X o X X X o X X X X X . 2.2.2.2.2.2.2.2.2.O O O O + O + O O O o 2.2.2.2.2.2.2.2.2.2.",
"2.2.2.2.2.. o o X X X X X X X X X X 2.2.2.2.2.2.2.2.2.O + O O O O O + O O O o 2.2.2.2.2.2.2.2.2.",
"2.2.2.2.2.. X . X X . X X X . X . . . . 2.2.2.2.2.2.2.o O O O + + O O O O + O 2.2.2.2.2.2.2.2.2.",
"2.2.2.2.2.. . . . X X X X o X X X X . . 2.2.2.2.2.2.2.2.O O O + + O O O O O O O 2.2.2.2.2.2.2.2.",
"2.2.2.2.2.2.2.2.2.2.. o X X X o X o 2.2.2.2.2.2.2.2.2.X O + O O O O O + + O O + O 2.2.2.2.2.2.2.",
"2.2.2.2.2.2.2.2.2.2.2.2.X X X X X X 2.2.2.2.2.2.2.2.o X O O O + O + O O O O O O O X 2.2.2.2.2.2.",
"2.2.2.2.2.2.2.2.2.2.2.2.2.X X X X o 2.F #.*.#._ F > O O + + O O O O + O + O O O O O 2.2.2.2.2.2.",
"2.2.2.2.2.2.2.2.2.2.2.2.2.2.X . % p [ ;.;.;.;.<.<.] - o O O O O O + O + O O O O + O O 2.2.2.2.2.",
"2.2.2.2.2.2.2.2.2.2.2.2.2.2.@ 5 ^ $.{ O.@.@.@.&.<.<.d O o O O O O O O O + O O O O O O 2.2.2.2.2.",
"2.2.2.2.2.2.2.2.2.2.2.2.2.2.D *.$.L n C L I ~ o.;.<.( % o O O O O + O O O O O O O O O O 2.2.2.2.",
"2.2.2.2.2.2.2.2.2.2.2.2.2.A <.<. .g i s s s k R %.<.*.> o O o O O O O O O 2.2.2.O O O O 2.2.2.2.",
"2.2.2.2.2.2.2.2.2.2.2.2.2. .<.<.;.) h i i s V ] <.=.` > + + O o O O O O 2.2.2.2.2.X O O o 2.2.2.",
"2.2.2.2.2.2.2.2.2.2.F ^ $.<.<.<.<.;.*.| _ | *.<.<.$.f = o + + O O O O O 2.2.2.2.2.2.o O O 2.2.2.",
"2.2.2.2.2.2.2.2.A #.;.<.<.<.<.<.<.<.<.<.<.<.<.<.<.<.( - O + O O O X O O 2.2.2.2.2.2.2.O O o 2.2.",
"2.2.2.2.2.2.2.v $.;.;.<.<.<.;.<.<.<.<.<.<.<.<.<.<.<.] * O O O + O O O O 2.2.2.2.2.2.2.2.O o 2.2.",
"2.2.2.2.2.2.2.b ~ X.X.o.+.&.%.;.;.<.;.<.<.<.;.;.;.%.p @ + O O O + + X O 2.2.2.2.2.2.2.2.2.O 2.2.",
"2.2.2.2.2.2.2.2.Q ~ ~ ~ ~ ~ } } X.X.O.O.O.O.O.O.Q e # O + + O + @ + O X X 2.2.2.2.2.2.2.2.X X 2.",
"2.2.2.2.2.2.2.2.I ~ ~ ~ ! T Q ~ Q Y Q ~ ~ ~ ~ K 4 % O + O O @ < t y 1 @ . 2.2.2.2.2.2.2.2.2.X 2.",
"2.2.2.2.2.2.2.2.N ! ! T e 7 z W J 7 c ! ! Q Q Q I x t 4 : $ ; f U ! I 2.2.2.2.2.2.2.2.2.2.2.2.2.",
"2.2.2.2.2.2.2.2.u W Q m 1 6 w K B q m Q Q Q Q Q ! Q ! Q Y x z J Q Q J 2.2.2.2.2.2.2.2.2.2.2.2.2.",
"2.2.2.2.2.2.2.2.2.U Q j 3 7 s J T Y R Q Q Q Q Q Q Q Q Q Q Q Q Q Q Q N 2.2.2.2.2.2.2.2.2.2.2.2.2.",
"2.2.2.2.2.2.2.2.2.M Q J w r c U E Q T E W W W E E W E W E E T Q W E l 2.2.2.2.2.2.2.2.2.2.2.2.2.",
"2.2.2.2.2.2.2.2.2.2.b N J J I Y T T T T T T T T T T T T Y U U K B b 2.2.2.2.2.2.2.2.2.2.2.2.2.2.",
"2.2.2.2.2.2.2.2.2.2.2.2.2.2.y u l l x b b b b b b b x l u 2.2.2.2.2.2.2.2.2.2.2.2.2.2.2.2.2.2.2.",
"2.2.2.2.2.2.2.2.2.2.2.2.2.2.2.2.2.2.2.2.2.2.2.2.2.2.2.2.2.2.2.2.2.2.2.2.2.2.2.2.2.2.2.2.2.2.2.2.",
"2.2.2.2.2.2.2.2.2.2.2.2.2.2.2.2.2.2.2.2.2.2.2.2.2.2.2.2.2.2.2.2.2.2.2.2.2.2.2.2.2.2.2.2.2.2.2.2.",
"2.2.2.2.2.2.2.2.2.2.2.2.2.2.2.2.2.2.2.2.2.2.2.2.2.2.2.2.2.2.2.2.2.2.2.2.2.2.2.2.2.2.2.2.2.2.2.2.",
"2.2.2.2.2.2.2.2.2.2.2.2.2.2.2.2.2.2.2.2.2.2.2.2.2.2.2.2.2.2.2.2.2.2.2.2.2.2.2.2.2.2.2.2.2.2.2.2.",
"2.2.2.2.2.2.2.2.2.2.2.2.2.2.2.2.2.2.2.2.2.2.2.2.2.2.2.2.2.2.2.2.2.2.2.2.2.2.2.2.2.2.2.2.2.2.2.2.",
"2.2.2.2.2.2.2.2.2.2.2.2.2.2.2.2.2.2.2.2.2.2.2.2.2.2.2.2.2.2.2.2.2.2.2.2.2.2.2.2.2.2.2.2.2.2.2.2.",
"2.2.2.2.2.2.2.2.2.2.2.2.2.2.2.2.2.2.2.2.2.2.2.2.2.2.2.2.2.2.2.2.2.2.2.2.2.2.2.2.2.2.2.2.2.2.2.2.",
"2.2.2.2.2.2.2.2.2.2.2.2.2.2.2.2.2.2.2.2.2.2.2.2.2.2.2.2.2.2.2.2.2.2.2.2.2.2.2.2.2.2.2.2.2.2.2.2.",
"2.2.2.2.2.2.2.2.2.2.2.2.2.2.2.2.2.2.2.2.2.2.2.2.2.2.2.2.2.2.2.2.2.2.2.2.2.2.2.2.2.2.2.2.2.2.2.2.",
"2.2.2.2.2.2.2.2.2.2.2.2.2.2.2.2.2.2.2.2.2.2.2.2.2.2.2.2.2.2.2.2.2.2.2.2.2.2.2.2.2.2.2.2.2.2.2.2.",
"2.2.2.2.2.2.2.2.2.2.2.2.2.2.2.2.2.2.2.2.2.2.2.2.2.2.2.2.2.2.2.2.2.2.2.2.2.2.2.2.2.2.2.2.2.2.2.2.",
"2.2.2.2.2.2.2.2.2.2.2.2.2.2.2.2.2.2.2.2.2.2.2.2.2.2.2.2.2.2.2.2.2.2.2.2.2.2.2.2.2.2.2.2.2.2.2.2.",
"2.2.2.2.2.2.2.2.2.2.2.2.2.2.2.2.2.2.2.2.2.2.2.2.2.2.2.2.2.2.2.2.2.2.2.2.2.2.2.2.2.2.2.2.2.2.2.2.",
"2.2.2.2.2.2.2.2.2.2.2.2.2.2.2.2.2.2.2.2.2.2.2.2.2.2.2.2.2.2.2.2.2.2.2.2.2.2.2.2.2.2.2.2.2.2.2.2.",
"2.2.2.2.2.2.2.2.2.2.2.2.2.2.2.2.2.2.2.2.2.2.2.2.2.2.2.2.2.2.2.2.2.2.2.2.2.2.2.2.2.2.2.2.2.2.2.2."
};
