/* XPM */
static char *result[] = {
/* columns rows colors chars-per-pixel */
"48 48 103 2 ",
"   c #070604",
".  c #090705",
"X  c #0C0A07",
"o  c #0F0C09",
"O  c #130E0A",
"+  c #17110B",
"@  c #1C150D",
"#  c #2A2315",
"$  c #312317",
"%  c #3A2C1A",
"&  c #3F321A",
"*  c #2F2B24",
"=  c #4C3624",
"-  c #4A3B22",
";  c #513F27",
":  c #5A4724",
">  c #5B4B2E",
",  c #534B3F",
"<  c #61452D",
"1  c #725A2E",
"2  c #735236",
"3  c #7A5937",
"4  c #795638",
"5  c #735F39",
"6  c #79653D",
"7  c #736B5B",
"8  c #7C7362",
"9  c #805E39",
"0  c #86643B",
"q  c #8B673E",
"w  c #8C6A3C",
"e  c #906C3F",
"r  c #92753A",
"t  c #9D7D3E",
"y  c #8D6642",
"u  c #846D42",
"i  c #926B44",
"p  c #957145",
"a  c #9B7542",
"s  c #9A7248",
"d  c #A17C44",
"f  c #A17748",
"g  c #A17B4D",
"h  c #9F8044",
"j  c #A58441",
"k  c #AB8744",
"l  c #AD8A45",
"z  c #A5844B",
"x  c #AE854B",
"c  c #A98A4C",
"v  c #B18D46",
"b  c #B38C49",
"n  c #B69148",
"m  c #BC954B",
"M  c #AA8252",
"N  c #B98D50",
"B  c #AF9158",
"V  c #BE9251",
"C  c #B19359",
"Z  c #BB9B5D",
"A  c #C59C4E",
"S  c #C99E52",
"D  c #C9A14F",
"F  c #CEA451",
"G  c #D2A753",
"H  c #D4A954",
"J  c #DAAE56",
"K  c #D8AB5A",
"L  c #DDB057",
"P  c #DEB158",
"I  c #E2B459",
"U  c #E7B85B",
"Y  c #EBBB5D",
"T  c #C1A161",
"R  c #C9A765",
"E  c #CBA966",
"W  c #D4AD69",
"Q  c #DEB360",
"!  c #D7B36C",
"~  c #DBB36B",
"^  c #DDB86E",
"/  c #E5B963",
"(  c #EEBF61",
")  c #E3BA71",
"_  c #EDC26E",
"`  c #F2C264",
"'  c #FCCA67",
"]  c #F3C569",
"[  c #F6C86E",
"{  c #FFCE69",
"}  c #E7C074",
"|  c #ECC476",
" . c #F1C672",
".. c #F9CC75",
"X. c #F4CB7A",
"o. c #F8CE7C",
"O. c #FFD175",
"+. c #FDD27D",
"@. c #A09580",
"#. c #AB9F88",
"$. c #B3A68E",
"%. c #FFD480",
"&. c None",
/* pixels */
"&.&.&.&.&.&.&.&.&.&.&.&.&.&.&.&.&.&.&.&.&.&.&.&.&.&.&.&.&.&.&.&.&.&.&.&.&.&.&.&.&.&.&.&.&.&.&.&.",
"&.&.&.&.&.&.&.&.&.&.&.&.&.&.&.&.&.&.&.&.&.&.&.&.&.&.&.&.&.&.&.&.&.&.&.&.&.&.&.&.&.&.&.&.&.&.&.&.",
"&.&.&.&.&.&.&.&.&.&.&.&.&.&.&.&.&.&.&.&.&.&.&.&.&.&.&.&.&.&.&.&.&.&.&.&.&.&.&.&.&.&.&.&.&.&.&.&.",
"&.&.&.&.&.&.&.&.&.&.&.&.&.&.&.&.&.&.&.&.&.&.&.&.&.&.&.&.&.&.&.&.&.&.&.&.&.&.&.&.&.&.&.&.&.&.&.&.",
"&.&.&.&.&.&.&.&.&.&.&.&.&.&.&.&.&.&.&.&.&.&.&.&.&.&.&.&.&.&.&.&.&.&.&.&.&.&.&.&.&.&.&.&.&.&.&.&.",
"&.&.&.&.&.&.. . . . . . . &.&.&.&.&.&.&.&.&.&.&.&.&.&.&.&.&.&.&.&.&.&.&.&.&.&.&.&.&.&.&.&.&.&.&.",
"&.&.&.* X X X o X X X X X X X X X &.&.&.&.&.&.&.&.&.&.&.&.&.&.&.&.&.&.&.&.&.&.&.&.&.&.&.&.&.&.&.",
"&.7 $.8 o X X X X X o X X o o X X o . . &.&.&.&.&.&.&.&.&.&.&.&.&.&.&.&.&.&.&.&.&.&.&.&.&.&.&.&.",
"&.&.&.&.X X X X X o X X X o X X X o &.&.&.&.&.&.&.&.&.&.&.&.&.&.&.&.&.&.&.&.&.&.&.&.&.&.&.&.&.&.",
"&.&.&.&.&.X o X X X X X X X X X X &.&.&.&.&.&.8 #.7 &.&.&.&.&.&.&.&.&.&.&.&.&.&.&.&.&.&.&.&.&.&.",
"&.&.&.&.&.. X X X X X o o X X X X   &.&.&.&.&.&.C , O O o o o &.&.&.&.&.&.&.&.&.&.&.&.&.&.&.&.&.",
"&.&.&.&.&.. X X X X . X . X X X X . . &.&.&.&.&.&.O + O + + + + O X &.&.&.&.&.&.&.&.&.&.&.&.&.&.",
"&.&.&.&.&..     . . X X X X X X X X   &.&.&.&.&.&.&.O O + + o + + O O o &.&.&.&.&.&.&.&.&.&.&.&.",
"&.&.&.&.&.&.&.&.&.&.&.&.. X X X o . &.&.&.&.&.&.&.&.&.O o + o + O O O O O &.&.&.&.&.&.&.&.&.&.&.",
"&.&.&.&.&.&.&.&.&.&.&.&.&.. X o . X &.T } X.} W Z &.&.O + o + + O + O + O O X &.&.&.&.&.&.&.&.&.",
"&.&.&.&.&.&.&.&.&.&.&.&.&.&.. . # u ^ +.+.+.%.%.%.%.) , o + + o O + O O O O O O &.&.&.&.&.&.&.&.",
"&.&.&.&.&.&.&.&.&.&.&.&.&.&.&.6 ! _ / ' [ ' { ..X.E T < O O O + O O + + O O O + o &.&.&.&.&.&.&.",
"&.&.&.&.&.&.&.&.&.&.&.&.&.&.E +.} m x N A S / '  .u @ O O O O O + O O O O + O O O O &.&.&.&.&.&.",
"&.&.&.&.&.&.&.&.&.&.&.&.&.B o.%.) s y i i i f K o.| > O O O + O + O O O O O O O + O O &.&.&.&.&.",
"&.&.&.&.&.&.&.&.&.&.&.&.&.} %.%.%.W g y y p g ~ %.o.z @ O O O O O O + O O O O O O O O o &.&.&.&.",
"&.&.&.&.&.&.&.&.&.&.Z R | %.%.%.%.%.X.) ~ ) o.%.%.| i $ O O O o O O O O o &.&.&.&.O O O X &.&.&.",
"&.&.&.&.&.&.&.&.C | +.%.%.%.%.%.%.%.%.%.%.%.%.%.%.%.W ; O O O O X O O O &.&.&.&.&.&.X O O &.&.&.",
"&.&.&.&.&.&.&.c  ...+.%.%.%.%.+.%.%.%.%.%.%.%.%.%.%.| - O O O O O O O O &.&.&.&.&.&.&.&.O X &.&.",
"&.&.&.&.&.&.&.n Y ` ] ] [ ....+.o.o.%.%.%.%.%.%.+.^ 5 @ O O O O O O X O &.&.&.&.&.&.&.&.&.O &.&.",
"&.&.&.&.&.&.&.&.I Y Y Y Y ( Y Y ` ] ] ] ] ] [ P h - @ + O o + % : : & + X &.&.&.&.&.&.&.&.&.X &.",
"&.&.&.&.&.&.&.&.G U Y Y I J U Y U G L Y Y Y U L F m k r 1 % = q S U D &.&.&.&.&.&.&.&.&.&.&.&.&.",
"&.&.&.&.&.&.&.&.m U U J w 3 d J A 3 x U U U U U Y U Y Y J 3 4 a G U G &.&.&.&.&.&.&.&.&.&.&.&.&.",
"&.&.&.&.&.&.&.&.t L U l < 2 q A m 0 b I I I U I I U I U I m b S L U A &.&.&.&.&.&.&.&.&.&.&.&.&.",
"&.&.&.&.&.&.&.&.&.F U d < 4 i A L H J L I P P I I L I L I I I I I I m &.&.&.&.&.&.&.&.&.&.&.&.&.",
"&.&.&.&.&.&.&.&.&.n L D w e v G L L L L L P L L L L L L P P P P L L j &.&.&.&.&.&.&.&.&.&.&.&.&.",
"&.&.&.&.&.&.&.&.&.&.v m A A F H J J J J L J J L L J J J H H F A m v &.&.&.&.&.&.&.&.&.&.&.&.&.&.",
"&.&.&.&.&.&.&.&.&.&.&.&.&.&.&.t j j k l l l l l l l k j t &.&.&.&.&.&.&.&.&.&.&.&.&.&.&.&.&.&.&.",
"&.&.&.&.&.&.&.&.&.&.&.&.&.&.&.&.&.&.&.&.&.&.&.&.&.&.&.&.&.&.&.&.&.&.&.&.&.&.&.&.&.&.&.&.&.&.&.&.",
"&.&.&.&.&.&.&.&.&.&.&.&.&.&.&.&.&.&.&.&.&.&.&.&.&.&.&.&.&.&.&.&.&.&.&.&.&.&.&.&.&.&.&.&.&.&.&.&.",
"&.&.&.&.&.&.&.&.&.&.&.&.&.&.&.&.&.&.&.&.&.&.&.&.&.&.&.&.&.&.&.&.&.&.&.&.&.&.&.&.&.&.&.&.&.&.&.&.",
"&.&.&.&.&.&.&.&.&.&.&.&.&.&.&.&.&.&.&.&.&.&.&.&.&.&.&.&.&.&.&.&.&.&.&.&.&.&.&.&.&.&.&.&.&.&.&.&.",
"&.&.&.&.&.&.&.&.&.&.&.&.&.&.&.&.&.&.&.&.&.&.&.&.&.&.&.&.&.&.&.&.&.&.&.&.&.&.&.&.&.&.&.&.&.&.&.&.",
"&.&.&.&.&.&.&.&.&.&.&.&.&.&.&.&.&.&.&.&.&.&.&.&.&.&.&.&.&.&.&.&.&.&.&.&.&.&.&.&.&.&.&.&.&.&.&.&.",
"&.&.&.&.&.&.&.&.&.&.&.&.&.&.&.&.&.&.&.&.&.&.&.&.&.&.&.&.&.&.&.&.&.&.&.&.&.&.&.&.&.&.&.&.&.&.&.&.",
"&.&.&.&.&.&.&.&.&.&.&.&.&.&.&.&.&.&.&.&.&.&.&.&.&.&.&.&.&.&.&.&.&.&.&.&.&.&.&.&.&.&.&.&.&.&.&.&.",
"&.&.&.&.&.&.&.&.&.&.&.&.&.&.&.&.&.&.&.&.&.&.&.&.&.&.&.&.&.&.&.&.&.&.&.&.&.&.&.&.&.&.&.&.&.&.&.&.",
"&.&.&.&.&.&.&.&.&.&.&.&.&.&.&.&.&.&.&.&.&.&.&.&.&.&.&.&.&.&.&.&.&.&.&.&.&.&.&.&.&.&.&.&.&.&.&.&.",
"&.&.&.&.&.&.&.&.&.&.&.&.&.&.&.&.&.&.&.&.&.&.&.&.&.&.&.&.&.&.&.&.&.&.&.&.&.&.&.&.&.&.&.&.&.&.&.&.",
"&.&.&.&.&.&.&.&.&.&.&.&.&.&.&.&.&.&.&.&.&.&.&.&.&.&.&.&.&.&.&.&.&.&.&.&.&.&.&.&.&.&.&.&.&.&.&.&.",
"&.&.&.&.&.&.&.&.&.&.&.&.&.&.&.&.&.&.&.&.&.&.&.&.&.&.&.&.&.&.&.&.&.&.&.&.&.&.&.&.&.&.&.&.&.&.&.&.",
"&.&.&.&.&.&.&.&.&.&.&.&.&.&.&.&.&.&.&.&.&.&.&.&.&.&.&.&.&.&.&.&.&.&.&.&.&.&.&.&.&.&.&.&.&.&.&.&.",
"&.&.&.&.&.&.&.&.&.&.&.&.&.&.&.&.&.&.&.&.&.&.&.&.&.&.&.&.&.&.&.&.&.&.&.&.&.&.&.&.&.&.&.&.&.&.&.&.",
"&.&.&.&.&.&.&.&.&.&.&.&.&.&.&.&.&.&.&.&.&.&.&.&.&.&.&.&.&.&.&.&.&.&.&.&.&.&.&.&.&.&.&.&.&.&.&.&."
};
