/* XPM */
static char *result[] = {
/* columns rows colors chars-per-pixel */
"48 48 107 2 ",
"   c #060504",
".  c #090705",
"X  c #0C0907",
"o  c #0F0C09",
"O  c #130E0A",
"+  c #16100B",
"@  c #1B140D",
"#  c #251D12",
"$  c #2D2517",
"%  c #3B2E18",
"&  c #2F2B24",
"*  c #42331D",
"=  c #47381D",
"-  c #4F4027",
";  c #584524",
":  c #5F4B27",
">  c #5B4B2D",
",  c #534B3F",
"<  c #61462D",
"1  c #6B552B",
"2  c #675533",
"3  c #6E5932",
"4  c #735236",
"5  c #775E30",
"6  c #7C5B37",
"7  c #7E5D38",
"8  c #7F6433",
"9  c #79643D",
"0  c #736B5B",
"q  c #7C7362",
"w  c #8B6F36",
"e  c #83613A",
"r  c #8A653D",
"t  c #8E6A3E",
"y  c #916E3D",
"u  c #8F7139",
"i  c #92743A",
"p  c #97783C",
"a  c #9F7E3F",
"s  c #8C6641",
"d  c #826C41",
"f  c #906743",
"g  c #926A44",
"h  c #897245",
"j  c #9C744A",
"k  c #A47E44",
"l  c #A67C4D",
"z  c #9A804D",
"x  c #A78442",
"c  c #AB8744",
"v  c #AE8B45",
"b  c #A6884B",
"n  c #B38F47",
"m  c #B28A49",
"M  c #B59047",
"N  c #B79248",
"B  c #BA944A",
"V  c #A78A53",
"C  c #AC8F56",
"Z  c #AE9158",
"A  c #BF9251",
"S  c #B39359",
"D  c #BA9A5D",
"F  c #C49B4D",
"G  c #C29753",
"H  c #C9A04F",
"J  c #CEA451",
"K  c #D1A653",
"L  c #D5A954",
"P  c #DAAE56",
"I  c #D1A258",
"U  c #DCAE5B",
"Y  c #DDB057",
"T  c #DFB158",
"R  c #E3B559",
"E  c #E7B85B",
"W  c #EBBB5D",
"Q  c #C09F60",
"!  c #C4A362",
"~  c #CFA666",
"^  c #CAA866",
"/  c #D8AE67",
"(  c #D4AE6A",
")  c #D7B36C",
"_  c #DEB66F",
"`  c #E6BB65",
"'  c #EEBD60",
"]  c #E3BB71",
"[  c #EFC061",
"{  c #ECC26F",
"}  c #F2C264",
"|  c #F8C867",
" . c #F4C66B",
".. c #FFCD69",
"X. c #ECC374",
"o. c #F7CA70",
"O. c #F9CC74",
"+. c #F0C778",
"@. c #F3CA7A",
"#. c #FACF7B",
"$. c #FFD176",
"%. c #FDD27D",
"&. c #A09580",
"*. c #AB9F88",
"=. c #B3A68E",
"-. c #FFD480",
";. c None",
/* pixels */
";.;.;.;.;.;.;.;.;.;.;.;.;.;.;.;.;.;.;.;.;.;.;.;.;.;.;.;.;.;.;.;.;.;.;.;.;.;.;.;.;.;.;.;.;.;.;.;.",
";.;.;.;.;.;.;.;.;.;.;.;.;.;.;.;.;.;.;.;.;.;.;.;.;.;.;.;.;.;.;.;.;.;.;.;.;.;.;.;.;.;.;.;.;.;.;.;.",
";.;.;.;.;.;.;.;.;.;.;.;.;.;.;.;.;.;.;.;.;.;.;.;.;.;.;.;.;.;.;.;.;.;.;.;.;.;.;.;.;.;.;.;.;.;.;.;.",
";.;.;.;.;.;.;.;.;.;.;.;.;.;.;.;.;.;.;.;.;.;.;.;.;.;.;.;.;.;.;.;.;.;.;.;.;.;.;.;.;.;.;.;.;.;.;.;.",
";.;.;.;.;.;.;.;.;.;.;.;.;.;.;.;.;.;.;.;.;.;.;.;.;.;.;.;.;.;.;.;.;.;.;.;.;.;.;.;.;.;.;.;.;.;.;.;.",
";.;.;.;.;.;.. . X . . . . ;.;.;.;.;.;.;.;.;.;.;.;.;.;.;.;.;.;.;.;.;.;.;.;.;.;.;.;.;.;.;.;.;.;.;.",
";.;.;.& X X X X X o o X X X X X . ;.;.;.;.;.;.;.;.;.;.;.;.;.;.;.;.;.;.;.;.;.;.;.;.;.;.;.;.;.;.;.",
";.0 =.q o o X X X X X X X X X X X X X . ;.;.;.;.;.;.;.;.;.;.;.;.;.;.;.;.;.;.;.;.;.;.;.;.;.;.;.;.",
";.;.;.;.X X X X o X X o X X O X X . ;.;.;.;.;.;.;.;.;.;.;.;.;.;.;.;.;.;.;.;.;.;.;.;.;.;.;.;.;.;.",
";.;.;.;.;.X X X X X X X X X X X X ;.;.;.;.;.;.q *.0 ;.;.;.;.;.;.;.;.;.;.;.;.;.;.;.;.;.;.;.;.;.;.",
";.;.;.;.;.. X X X X X X X X X X X . ;.;.;.;.;.;.&., O O O O X ;.;.;.;.;.;.;.;.;.;.;.;.;.;.;.;.;.",
";.;.;.;.;.. X . X X X X X . X X X .   ;.;.;.;.;.;.X O + O O + O O X ;.;.;.;.;.;.;.;.;.;.;.;.;.;.",
";.;.;.;.;.. . . . . . X X X X X X . $ h ] @.X.) D 2 @ + O O O + + O O o ;.;.;.;.;.;.;.;.;.;.;.;.",
";.;.;.;.;.;.;.;.;.;.;.;.. X X X # 9 ) %.%.%.%.-.%.@.z @ O O O O O + O O O ;.;.;.;.;.;.;.;.;.;.;.",
";.;.;.;.;.;.;.;.;.;.;.;.;.. @ > ! X.` | ......$.-.-.+.- O O + O O O O + O O X ;.;.;.;.;.;.;.;.;.",
";.;.;.;.;.;.;.;.;.;.;.;.;.;.V @.X.G m G G I ' | %.-.-.d o + O + + O + O O O O O ;.;.;.;.;.;.;.;.",
";.;.;.;.;.;.;.;.;.;.;.;.;.C #.-.] j f f f f l U ] ~ Q > O O O + O + O O + O O O X ;.;.;.;.;.;.;.",
";.;.;.;.;.;.;.;.;.;.;.;.;.] -.-.#.~ j r r f l / @.d @ O O O + O + O + O o + + + + X ;.;.;.;.;.;.",
";.;.;.;.;.;.;.;.;.;.C ! X.-.-.-.-.-.@._ ( ] @.-.-.] % O X O O + + O + O + + + + + O O ;.;.;.;.;.",
";.;.;.;.;.;.;.;.C X.-.-.-.-.-.-.-.-.-.-.-.-.-.-.-.-.S # O O O O O + O O O o o o O O + O ;.;.;.;.",
";.;.;.;.;.;.;.b X.%.-.-.-.-.-.-.-.-.-.-.-.%.-.-.-.-.@.> O O O o O O O O X ;.;.;.;.o O O X ;.;.;.",
";.;.;.;.;.;.;.M ' }  . ...O.#.#.%.%.-.-.-.-.-.-.%.%.O.3 O O O O O o O O ;.;.;.;.;.;.X O O ;.;.;.",
";.;.;.;.;.;.;.;.R ' W W ' ' ' ' }  . . . . . . .} } U * O O O O + O O O ;.;.;.;.;.;.;.;.O X ;.;.",
";.;.;.;.;.;.;.;.K W E W R L E W E L R W E W W E E J 1 @ O O O O o o o O ;.;.;.;.;.;.;.;.;.O ;.;.",
";.;.;.;.;.;.;.;.B R W Y i 7 k R F 6 m R R W R K p = @ + O O @ % ; ; % O X ;.;.;.;.;.;.;.;.;.X ;.",
";.;.;.;.;.;.;.;.a T R n > 4 t F B e n R R E R P F B x i 5 : 8 F P Y M ;.;.;.;.;.;.;.;.;.;.;.;.;.",
";.;.;.;.;.;.;.;.;.K R j < 4 g F U K P R R R R T R R R R R T T R R R B ;.;.;.;.;.;.;.;.;.;.;.;.;.",
";.;.;.;.;.;.;.;.;.N R F r t m K T T Y Y Y Y Y Y Y Y T Y Y T T T R P x ;.;.;.;.;.;.;.;.;.;.;.;.;.",
";.;.;.;.;.;.;.;.;.w N F F F J P P P P P P T P U P Y P P P L J H F M ;.;.;.;.;.;.;.;.;.;.;.;.;.;.",
";.;.;.;.;.;.;.;.;.;.;.;.;.;.i a x v n n n n n n M M v c a u ;.;.;.;.;.;.;.;.;.;.;.;.;.;.;.;.;.;.",
";.;.;.;.;.;.;.;.;.;.;.;.;.;.;.;.;.;.;.;.;.;.;.;.;.;.;.;.;.;.;.;.;.;.;.;.;.;.;.;.;.;.;.;.;.;.;.;.",
";.;.;.;.;.;.;.;.;.;.;.;.;.;.;.;.;.;.;.;.;.;.;.;.;.;.;.;.;.;.;.;.;.;.;.;.;.;.;.;.;.;.;.;.;.;.;.;.",
";.;.;.;.;.;.;.;.;.;.;.;.;.;.;.;.;.;.;.;.;.;.;.;.;.;.;.;.;.;.;.;.;.;.;.;.;.;.;.;.;.;.;.;.;.;.;.;.",
";.;.;.;.;.;.;.;.;.;.;.;.;.;.;.;.;.;.;.;.;.;.;.;.;.;.;.;.;.;.;.;.;.;.;.;.;.;.;.;.;.;.;.;.;.;.;.;.",
";.;.;.;.;.;.;.;.;.;.;.;.;.;.;.;.;.;.;.;.;.;.;.;.;.;.;.;.;.;.;.;.;.;.;.;.;.;.;.;.;.;.;.;.;.;.;.;.",
";.;.;.;.;.;.;.;.;.;.;.;.;.;.;.;.;.;.;.;.;.;.;.;.;.;.;.;.;.;.;.;.;.;.;.;.;.;.;.;.;.;.;.;.;.;.;.;.",
";.;.;.;.;.;.;.;.;.;.;.;.;.;.;.;.;.;.;.;.;.;.;.;.;.;.;.;.;.;.;.;.;.;.;.;.;.;.;.;.;.;.;.;.;.;.;.;.",
";.;.;.;.;.;.;.;.;.;.;.;.;.;.;.;.;.;.;.;.;.;.;.;.;.;.;.;.;.;.;.;.;.;.;.;.;.;.;.;.;.;.;.;.;.;.;.;.",
";.;.;.;.;.;.;.;.;.;.;.;.;.;.;.;.;.;.;.;.;.;.;.;.;.;.;.;.;.;.;.;.;.;.;.;.;.;.;.;.;.;.;.;.;.;.;.;.",
";.;.;.;.;.;.;.;.;.;.;.;.;.;.;.;.;.;.;.;.;.;.;.;.;.;.;.;.;.;.;.;.;.;.;.;.;.;.;.;.;.;.;.;.;.;.;.;.",
";.;.;.;.;.;.;.;.;.;.;.;.;.;.;.;.;.;.;.;.;.;.;.;.;.;.;.;.;.;.;.;.;.;.;.;.;.;.;.;.;.;.;.;.;.;.;.;.",
";.;.;.;.;.;.;.;.;.;.;.;.;.;.;.;.;.;.;.;.;.;.;.;.;.;.;.;.;.;.;.;.;.;.;.;.;.;.;.;.;.;.;.;.;.;.;.;.",
";.;.;.;.;.;.;.;.;.;.;.;.;.;.;.;.;.;.;.;.;.;.;.;.;.;.;.;.;.;.;.;.;.;.;.;.;.;.;.;.;.;.;.;.;.;.;.;.",
";.;.;.;.;.;.;.;.;.;.;.;.;.;.;.;.;.;.;.;.;.;.;.;.;.;.;.;.;.;.;.;.;.;.;.;.;.;.;.;.;.;.;.;.;.;.;.;.",
";.;.;.;.;.;.;.;.;.;.;.;.;.;.;.;.;.;.;.;.;.;.;.;.;.;.;.;.;.;.;.;.;.;.;.;.;.;.;.;.;.;.;.;.;.;.;.;.",
";.;.;.;.;.;.;.;.;.;.;.;.;.;.;.;.;.;.;.;.;.;.;.;.;.;.;.;.;.;.;.;.;.;.;.;.;.;.;.;.;.;.;.;.;.;.;.;.",
";.;.;.;.;.;.;.;.;.;.;.;.;.;.;.;.;.;.;.;.;.;.;.;.;.;.;.;.;.;.;.;.;.;.;.;.;.;.;.;.;.;.;.;.;.;.;.;.",
";.;.;.;.;.;.;.;.;.;.;.;.;.;.;.;.;.;.;.;.;.;.;.;.;.;.;.;.;.;.;.;.;.;.;.;.;.;.;.;.;.;.;.;.;.;.;.;."
};
