/* XPM */
static char *result[] = {
/* columns rows colors chars-per-pixel */
"48 48 101 2 ",
"   c #070604",
".  c #090705",
"X  c #0D0A06",
"o  c #0F0C08",
"O  c #130E0A",
"+  c #16110B",
"@  c #1A140C",
"#  c #251E12",
"$  c #43341D",
"%  c #47381D",
"&  c #4A3B1E",
"*  c #4E3A22",
"=  c #4F4128",
"-  c #5F4B26",
";  c #504228",
":  c #614D27",
">  c #61452D",
",  c #675129",
"<  c #6B542B",
"1  c #6F582C",
"2  c #695735",
"3  c #745436",
"4  c #775836",
"5  c #73603A",
"6  c #7C653B",
"7  c #544D42",
"8  c #5C5447",
"9  c #85623B",
"0  c #8A653E",
"q  c #8C6A3D",
"w  c #926D3F",
"e  c #95763B",
"r  c #9C7D3E",
"t  c #8E6743",
"y  c #8E6842",
"u  c #926B44",
"i  c #8C7546",
"p  c #997347",
"a  c #9A7148",
"s  c #A27C45",
"d  c #A17648",
"f  c #A17A4D",
"g  c #847A69",
"h  c #A38241",
"j  c #AA8545",
"k  c #AF8B45",
"l  c #AF864A",
"z  c #B18C46",
"x  c #B38B49",
"c  c #B69248",
"v  c #BD954B",
"b  c #A08450",
"n  c #AB8252",
"m  c #AE8D56",
"M  c #B98D50",
"N  c #BE9251",
"B  c #B69059",
"V  c #BB9C5E",
"C  c #C49B4E",
"Z  c #C69D56",
"A  c #CB9F57",
"S  c #CDA351",
"D  c #D1A652",
"F  c #D4A954",
"G  c #DAAE56",
"H  c #D8AA5A",
"J  c #DDB157",
"K  c #DEB158",
"L  c #E2B459",
"P  c #E7B85B",
"I  c #ECBC5D",
"U  c #F0BF5F",
"Y  c #C4A362",
"T  c #D7AD62",
"R  c #D5AC69",
"E  c #DDB262",
"W  c #D6B16B",
"Q  c #DBB46C",
"!  c #DFBA70",
"~  c #E4B863",
"^  c #EDBF63",
"/  c #E4BB71",
"(  c #F1C05F",
")  c #EBC16E",
"_  c #F2C263",
"`  c #F8C766",
"'  c #FECC67",
"]  c #F4C56A",
"[  c #F7C96E",
"{  c #FFCE69",
"}  c #EBC274",
"|  c #F6CB75",
" . c #F9CC73",
".. c #F4CB7B",
"X. c #FACF7B",
"o. c #FFD075",
"O. c #FED27E",
"+. c #9F9480",
"@. c #A39782",
"#. c #FFD480",
"$. c None",
/* pixels */
"$.$.$.$.$.$.$.$.$.$.$.$.$.$.$.$.$.$.$.$.$.$.$.$.$.$.$.$.$.$.$.$.$.$.$.$.$.$.$.$.$.$.$.$.$.$.$.$.",
"$.$.$.$.$.$.$.$.$.$.$.$.$.$.$.$.$.$.$.$.$.$.$.$.$.$.$.$.$.$.$.$.$.$.$.$.$.$.$.$.$.$.$.$.$.$.$.$.",
"$.$.$.$.$.$.$.$.$.$.$.$.$.$.$.$.$.$.$.$.$.$.$.$.$.$.$.$.$.$.$.$.$.$.$.$.$.$.$.$.$.$.$.$.$.$.$.$.",
"$.$.$.$.$.$.$.$.$.$.$.$.$.$.$.$.$.$.$.$.$.$.$.$.$.$.$.$.$.$.$.$.$.$.$.$.$.$.$.$.$.$.$.$.$.$.$.$.",
"$.$.$.$.$.$.$.$.$.$.$.$.$.$.$.$.$.$.$.$.$.$.$.$.$.$.$.$.$.$.$.$.$.$.$.$.$.$.$.$.$.$.$.$.$.$.$.$.",
"$.$.$.$.$.$.$.$.$.$.$.$.$.$.$.$.$.$.$.$.$.$.$.$.$.$.$.$.$.$.$.$.$.$.$.$.$.$.$.$.$.$.$.$.$.$.$.$.",
"$.$.$.$.$.$.$.$.$.$.$.$.$.$.$.$.$.$.$.$.$.$.$.$.$.$.$.$.$.$.$.$.$.$.$.$.$.$.$.$.$.$.$.$.$.$.$.$.",
"$.$.$.$.$.$.$.$.$.$.$.$.$.$.$.$.$.$.$.$.$.$.$.$.$.$.$.$.$.$.$.$.$.$.$.$.$.$.$.$.$.$.$.$.$.$.$.$.",
"$.$.$.$.$.$.$.$.$.$.$.$.$.$.$.$.$.$.$.$.$.$.$.$.$.$.$.$.$.$.$.$.$.$.$.$.$.$.$.$.$.$.$.$.$.$.$.$.",
"$.$.$.$.$.$.$.$.$.$.$.$.$.$.$.$.$.$.$.$.$.$.$.$.$.$.$.$.$.$.$.$.$.$.$.$.$.$.$.$.$.$.$.$.$.$.$.$.",
"$.$.$.$.$.$.$.$.$.$.$.$.$.$.$.$.$.$.$.Y } ..} W V $.$.$.$.$.$.$.$.$.$.$.$.$.$.$.$.$.$.$.$.$.$.$.",
"$.$.$.$.$.$.$.$.$.$.$.$.$.$.$.$.$.V / O.O.O.#.#.#...! V $.$.$.$.$.$.$.$.$.$.$.$.$.$.$.$.$.$.$.$.",
"$.$.$.$.$.$.$.$.$.$.$.$.$.$.# i Q ) ~ ` { { {  .O.#.#.O.} Y $.$.$.$.$.$.$.$.$.$.$.$.$.$.$.$.$.$.",
"$.$.$.$.$.$.$.$.$.$.$.$.$.# m ..} v l M M A I ' O.#.#.#.#.#.} V $.$.$.$.$.$.$.$.$.$.$.$.$.$.$.$.",
"$.$.$.$.$.  .         X   2 O.#./ a t u u u d H | #.O.O.O.#.#.#.W $.$.$.$.$.$.$.$.$.$.$.$.$.$.$.",
"$.$.$.$.$.. X X X .   o = Q #.#.#.R f t y u n Q O...T Z A E ..#.#.! $.$.$.$.$.$.$.$.$.$.$.$.$.$.",
"$.$.$.$.X X X X o = 6 b } #.#.#.#.#.../ W / X.#.#.} a 9 0 d / #.O.O.Q $.$.$.$.$.$.$.$.$.$.$.$.$.",
"$.$.g 7 X . X + 5 } #.#.#.#.#.O.#.#.#.#.#.#.#.#.#.#.R m B R O.O.O. ._ $.$.$.$.$.$.$.$.$.$.$.$.$.",
"$.$.$.$.$.$.X 6 } O.#.#.#.#.O.O.#.#.#.#.#.#.#.#.#.#.#.#.O.X.[ ` _ _ P $.$.$.$.$.$.$.$.$.$.$.$.$.",
"$.$.$.$.$.$.$.x I _ _ ` [  .X.O.X.#.#.X.O.#.O.O.X.X. .[ _ ^ I I ( ( P $.$.$.$.$.$.$.$.$.$.$.$.$.",
"$.$.$.$.$.$.$.$.L I I I I I U ^ ^ ] ] ] ] ] ] ] _ U U U I z 9 j P I L $.$.$.$.$.$.$.$.$.$.$.$.$.",
"$.$.$.$.$.$.$.$.S I I I L H L I P F J I P I P L F S C j e * * 0 S I D $.$.$.$.$.$.$.$.$.$.$.$.$.",
"$.$.$.$.$.$.$.$.c P P G 0 3 s J C 3 l L P P P D e * # @ O O @ $ - , & O . $.$.$.$.$.$.$.$.$.X $.",
"$.$.$.$.$.$.$.$.r K P z - 3 q S C 9 x L L L P L L C < @ O O O O O O X O $.$.$.$.$.$.$.$.$.O $.$.",
"$.$.$.$.$.$.$.$.$.D L h > 3 u C J F G K L L L L L L D % O + O + O O O o $.$.$.$.$.$.$.X O o $.$.",
"$.$.$.$.$.$.$.$.$.c K C q u z D J J J J G K J J K K J : o + O o O O O O $.$.$.$.$.$.O O O $.$.$.",
"$.$.$.$.$.$.$.$.$.$.z v C C S F G G G G G G G G G J S $ O o o o + O O O O $.$.o O O O O $.$.$.$.",
"$.$.$.$.$.$.$.$.$.$.$.$.$.$.$.r h h j k k z k z z z 1 + o o O + O O + + O O O O O O O X $.$.$.$.",
"$.$.$.$.$.$.$.$.$.$.$.$.$.$.$.$.$.$.$.$.$.$.$.$.$.$.X o + O O + O O + O O O O O O O X $.$.$.$.$.",
"$.$.$.$.$.$.$.$.$.$.$.$.$.$.$.$.$.$.$.$.$.$.$.$.$.$.X O + O O O + O O O + O + O O X $.$.$.$.$.$.",
"$.$.$.$.$.$.$.$.$.$.$.$.$.$.$.$.$.$.$.$.$.$.$.$.$.$.$.X + O + O + O + O O O O O $.$.$.$.$.$.$.$.",
"$.$.$.$.$.$.$.$.$.$.$.$.$.$.$.$.$.$.$.$.$.$.$.$.$.$.$.o O O + O O O O O + O o $.$.$.$.$.$.$.$.$.",
"$.$.$.$.$.$.$.$.$.$.$.$.$.$.$.$.$.$.$.$.$.$.$.$.$.$.$.O O O + O + + O O O X $.$.$.$.$.$.$.$.$.$.",
"$.$.$.$.$.$.$.$.$.$.$.$.$.$.$.$.$.$.$.$.$.$.$.$.$.$.o + + O O O O O O o $.$.$.$.$.$.$.$.$.$.$.$.",
"$.$.$.$.$.$.$.$.$.$.$.$.$.$.$.$.$.$.$.$.$.$.$.$.$.O + O O O O O O X $.$.$.$.$.$.$.$.$.$.$.$.$.$.",
"$.$.$.$.$.$.$.$.$.$.$.$.$.$.$.$.$.$.$.$.$.$.$.$.@.8 O O o O X $.$.$.$.$.$.$.$.$.$.$.$.$.$.$.$.$.",
"$.$.$.$.$.$.$.$.$.$.$.$.$.$.$.$.$.$.$.$.$.$.$.$.+.$.$.$.$.$.$.$.$.$.$.$.$.$.$.$.$.$.$.$.$.$.$.$.",
"$.$.$.$.$.$.$.$.$.$.$.$.$.$.$.$.$.$.$.$.$.$.$.$.$.$.$.$.$.$.$.$.$.$.$.$.$.$.$.$.$.$.$.$.$.$.$.$.",
"$.$.$.$.$.$.$.$.$.$.$.$.$.$.$.$.$.$.$.$.$.$.$.$.$.$.$.$.$.$.$.$.$.$.$.$.$.$.$.$.$.$.$.$.$.$.$.$.",
"$.$.$.$.$.$.$.$.$.$.$.$.$.$.$.$.$.$.$.$.$.$.$.$.$.$.$.$.$.$.$.$.$.$.$.$.$.$.$.$.$.$.$.$.$.$.$.$.",
"$.$.$.$.$.$.$.$.$.$.$.$.$.$.$.$.$.$.$.$.$.$.$.$.$.$.$.$.$.$.$.$.$.$.$.$.$.$.$.$.$.$.$.$.$.$.$.$.",
"$.$.$.$.$.$.$.$.$.$.$.$.$.$.$.$.$.$.$.$.$.$.$.$.$.$.$.$.$.$.$.$.$.$.$.$.$.$.$.$.$.$.$.$.$.$.$.$.",
"$.$.$.$.$.$.$.$.$.$.$.$.$.$.$.$.$.$.$.$.$.$.$.$.$.$.$.$.$.$.$.$.$.$.$.$.$.$.$.$.$.$.$.$.$.$.$.$.",
"$.$.$.$.$.$.$.$.$.$.$.$.$.$.$.$.$.$.$.$.$.$.$.$.$.$.$.$.$.$.$.$.$.$.$.$.$.$.$.$.$.$.$.$.$.$.$.$.",
"$.$.$.$.$.$.$.$.$.$.$.$.$.$.$.$.$.$.$.$.$.$.$.$.$.$.$.$.$.$.$.$.$.$.$.$.$.$.$.$.$.$.$.$.$.$.$.$.",
"$.$.$.$.$.$.$.$.$.$.$.$.$.$.$.$.$.$.$.$.$.$.$.$.$.$.$.$.$.$.$.$.$.$.$.$.$.$.$.$.$.$.$.$.$.$.$.$.",
"$.$.$.$.$.$.$.$.$.$.$.$.$.$.$.$.$.$.$.$.$.$.$.$.$.$.$.$.$.$.$.$.$.$.$.$.$.$.$.$.$.$.$.$.$.$.$.$.",
"$.$.$.$.$.$.$.$.$.$.$.$.$.$.$.$.$.$.$.$.$.$.$.$.$.$.$.$.$.$.$.$.$.$.$.$.$.$.$.$.$.$.$.$.$.$.$.$."
};
