/* XPM */
static char *result[] = {
/* columns rows colors chars-per-pixel */
"48 48 108 2 ",
"   c #070604",
".  c #090705",
"X  c #0C0906",
"o  c #0F0B08",
"O  c #130E0A",
"+  c #17120B",
"@  c #1A140C",
"#  c #231B0F",
"$  c #231D12",
"%  c #2A2113",
"&  c #382E1C",
"*  c #3E331F",
"=  c #46361E",
"-  c #49391E",
";  c #453923",
":  c #4F3E20",
">  c #5F442C",
",  c #58492C",
"<  c #634E28",
"1  c #6B552B",
"2  c #6C4E32",
"3  c #725235",
"4  c #7C5A39",
"5  c #79643D",
"6  c #544D42",
"7  c #5C5447",
"8  c #856A35",
"9  c #8B6F37",
"0  c #86623F",
"q  c #8F6B3F",
"w  c #93753B",
"e  c #9B7B3D",
"r  c #8C6642",
"t  c #8F6A40",
"y  c #966D46",
"u  c #9C7346",
"i  c #9F7944",
"p  c #9D7348",
"a  c #A27C44",
"s  c #A27949",
"d  c #847A69",
"f  c #A1813F",
"g  c #A88245",
"h  c #AD8A44",
"j  c #AE864E",
"k  c #B08A47",
"l  c #B48D4A",
"z  c #B5924B",
"x  c #B9924A",
"c  c #AB8552",
"v  c #A78B54",
"b  c #AA8D55",
"n  c #B18B56",
"m  c #B58E58",
"M  c #AF9258",
"N  c #BD9350",
"B  c #BE9E5F",
"V  c #BF9F60",
"C  c #C49C4E",
"Z  c #C39653",
"A  c #C59A50",
"S  c #CA9F53",
"D  c #C9A04F",
"F  c #CCA252",
"G  c #CCA15B",
"H  c #D0A652",
"J  c #D6AB55",
"K  c #D9AD56",
"L  c #DDB057",
"P  c #DFB259",
"I  c #E3B559",
"U  c #E8B75E",
"Y  c #E7B85B",
"T  c #EBBB5D",
"R  c #C5A363",
"E  c #D1A867",
"W  c #D8AF60",
"Q  c #D4AE69",
"!  c #D6B26B",
"~  c #DAB56C",
"^  c #EFBF61",
"/  c #E1B76D",
"(  c #E2B969",
")  c #EABF6C",
"_  c #E5BE73",
"`  c #F2C15F",
"'  c #EFC060",
"]  c #EAC06D",
"[  c #F3C263",
"{  c #FDCA65",
"}  c #F4C669",
"|  c #F7C86D",
" . c #FBCB6C",
".. c #E7C074",
"X. c #ECC375",
"o. c #F1C773",
"O. c #F4C974",
"+. c #FBCE74",
"@. c #F1C778",
"#. c #F5CB7B",
"$. c #FACE7A",
"%. c #FFD071",
"&. c #FED37E",
"*. c #9F9480",
"=. c #A39782",
"-. c #FFD480",
";. c #FFD882",
":. c None",
/* pixels */
":.:.:.:.:.:.:.:.:.:.:.:.:.:.:.:.:.:.:.:.:.:.:.:.:.:.:.:.:.:.:.:.:.:.:.:.:.:.:.:.:.:.:.:.:.:.:.:.",
":.:.:.:.:.:.:.:.:.:.:.:.:.:.:.:.:.:.:.:.:.:.:.:.:.:.:.:.:.:.:.:.:.:.:.:.:.:.:.:.:.:.:.:.:.:.:.:.",
":.:.:.:.:.:.:.:.:.:.:.:.:.:.:.:.:.:.:.:.:.:.:.:.:.:.:.:.:.:.:.:.:.:.:.:.:.:.:.:.:.:.:.:.:.:.:.:.",
":.:.:.:.:.:.:.:.:.:.:.:.:.:.:.:.:.:.:.:.:.:.:.:.:.:.:.:.:.:.:.:.:.:.:.:.:.:.:.:.:.:.:.:.:.:.:.:.",
":.:.:.:.:.:.:.:.:.:.:.:.:.:.:.:.:.:.:.:.:.:.:.:.:.:.:.:.:.:.:.:.:.:.:.:.:.:.:.:.:.:.:.:.:.:.:.:.",
":.:.:.:.:.:.:.:.:.:.:.:.:.:.:.:.:.:.:.:.:.:.:.:.:.:.:.:.:.:.:.:.:.:.:.:.:.:.:.:.:.:.:.:.:.:.:.:.",
":.:.:.:.:.:.:.:.:.:.:.:.:.:.:.:.:.:.:.:.:.:.:.:.:.:.:.:.:.:.:.:.:.:.:.:.:.:.:.:.:.:.:.:.:.:.:.:.",
":.:.:.:.:.:.:.:.:.:.:.:.:.:.:.:.:.:.:.:.:.:.:.:.:.:.:.:.:.:.:.:.:.:.:.:.:.:.:.:.:.:.:.:.:.:.:.:.",
":.:.:.:.:.:.:.:.:.:.:.:.:.:.:.:.:.:.:.:.:.:.:.:.:.:.:.:.:.:.:.:.:.:.:.:.:.:.:.:.:.:.:.:.:.:.:.:.",
":.:.:.:.:.:.:.:.:.:.:.:.:.:.:.:.:.:.:.:.:.:.:.:.:.:.:.:.:.:.:.:.:.:.:.:.:.:.:.:.:.:.:.:.:.:.:.:.",
":.:.:.:.:.:.:.:.:.:.:.:.:.:.:.:.:.:.:.:.:.:.:.:.:.:.:.:.:.:.:.:.:.:.:.:.:.:.:.:.:.:.:.:.:.:.:.:.",
":.:.:.:.:.:.:.:.:.:.:.:.:.:.:.:.:.:.:.:.R ! R b :.:.:.:.:.:.:.:.:.:.:.:.:.:.:.:.:.:.:.:.:.:.:.:.",
":.:.:.:.:.:.:.:.:.:.:.:.:.:.    :.:.V X.&.&.&.$...E M :.:.:.:.:.:.:.:.:.:.:.:.:.:.:.:.:.:.:.:.:.",
":.:.:.:.:.:.:.:.:.:.:.:.:.. . $ 5 ! o.+.%.+.%.&.;.-.&._ R :.:.:.:.:.:.:.:.:.:.:.:.:.:.:.:.:.:.:.",
":.:.:.:.:.  .         . X o , R @.P S I U [ {  .&.;.-.-.-.@.R :.:.:.:.:.:.:.:.:.:.:.:.:.:.:.:.:.",
":.:.:.:.:.. X X X X X X   * _ ;./ s y u p s Z ^ O.-.-.-.-.-.&._ b :.:.:.:.:.:.:.:.:.:.:.:.:.:.:.",
":.:.:.:.. X o o X X X . @ v -.-.@.c r r r r y S $.-.o.) ) O.&.-.#.B :.:.:.:.:.:.:.:.:.:.:.:.:.:.",
":.:.d 6 X X X o . @ % ; v $.-.-.-.#.E n c m Q #.-.@.c u s N X.-.-.$.B :.:.:.:.:.:.:.:.:.:.:.:.:.",
":.:.:.:.:.:.:.:.& b ~ X.-.-.-.-.-.-.-.-.&.&.-.-.-.$.c 0 r c O.-.&.&.] :.:.:.:.:.:.:.:.:.:.:.:.:.",
":.:.:.:.:.:.:.:.~ -.-.-.-.-.-.-.-.-.-.-.-.-.-.-.-.-.-._ ..#.&.+. .} U :.:.:.:.:.:.:.:.:.:.:.:.:.",
":.:.:.:.:.:.:.z } | +.+.&.&.&.&.-.-.&.-.-.&.-.-.-.-.&.&.+. .[ ` ` ` T :.:.:.:.:.:.:.:.:.:.:.:.:.",
":.:.:.:.:.:.:.f U ^ ^ ' ^ [ } } O.O.+.&.$.$.+.o.( W F l e 8 w F T T K :.:.:.:.:.:.:.:.:.:.:.:.:.",
":.:.:.:.:.:.:.:.K T U T ^ T T T T T T T T U T J e - $ @ @ O @ = 1 1 : + . :.:.:.:.:.:.:.:.:.X :.",
":.:.:.:.:.:.:.:.C T Y Y x a A I K a A U T T T T Y D 1 + O O O O O O X O :.:.:.:.:.:.:.:.:.O :.:.",
":.:.:.:.:.:.:.:.h I Y C 1 2 q H l 3 g I I Y I I Y Y J - O O O O O O O O :.:.:.:.:.:.:.X O o :.:.",
":.:.:.:.:.:.:.:.:.J I a < 3 t C H k C I I I I I I I I < O O O O O O O O :.:.:.:.:.:.O O O :.:.:.",
":.:.:.:.:.:.:.:.:.C I k 2 0 p S I P P P P I I P P I D = O O O O O + + O O :.:.X O O O O :.:.:.:.",
":.:.:.:.:.:.:.:.:.f H H l l C K K P L L L L K P P K 9 @ O X O O O O O O O O O O O O O X :.:.:.:.",
":.:.:.:.:.:.:.:.:.:.:.w f h x C C C D H F F F H H e % X O O O O O O O O O O O O O O X :.:.:.:.:.",
":.:.:.:.:.:.:.:.:.:.:.:.:.:.:.:.:.:.:.:.:.:.:.:.:.% . O O O O O O + + O O O + O O X :.:.:.:.:.:.",
":.:.:.:.:.:.:.:.:.:.:.:.:.:.:.:.:.:.:.:.:.:.:.:.:.:.:.X + O O O O O + O + O O O :.:.:.:.:.:.:.:.",
":.:.:.:.:.:.:.:.:.:.:.:.:.:.:.:.:.:.:.:.:.:.:.:.:.:.:.O O O + O O O O O O O o :.:.:.:.:.:.:.:.:.",
":.:.:.:.:.:.:.:.:.:.:.:.:.:.:.:.:.:.:.:.:.:.:.:.:.:.:.+ O O O O O + O O O X :.:.:.:.:.:.:.:.:.:.",
":.:.:.:.:.:.:.:.:.:.:.:.:.:.:.:.:.:.:.:.:.:.:.:.:.:.o O + O O + O O O o :.:.:.:.:.:.:.:.:.:.:.:.",
":.:.:.:.:.:.:.:.:.:.:.:.:.:.:.:.:.:.:.:.:.:.:.:.:.O + O O O O O O X :.:.:.:.:.:.:.:.:.:.:.:.:.:.",
":.:.:.:.:.:.:.:.:.:.:.:.:.:.:.:.:.:.:.:.:.:.:.:.=.7 O O o O X :.:.:.:.:.:.:.:.:.:.:.:.:.:.:.:.:.",
":.:.:.:.:.:.:.:.:.:.:.:.:.:.:.:.:.:.:.:.:.:.:.:.*.:.:.:.:.:.:.:.:.:.:.:.:.:.:.:.:.:.:.:.:.:.:.:.",
":.:.:.:.:.:.:.:.:.:.:.:.:.:.:.:.:.:.:.:.:.:.:.:.:.:.:.:.:.:.:.:.:.:.:.:.:.:.:.:.:.:.:.:.:.:.:.:.",
":.:.:.:.:.:.:.:.:.:.:.:.:.:.:.:.:.:.:.:.:.:.:.:.:.:.:.:.:.:.:.:.:.:.:.:.:.:.:.:.:.:.:.:.:.:.:.:.",
":.:.:.:.:.:.:.:.:.:.:.:.:.:.:.:.:.:.:.:.:.:.:.:.:.:.:.:.:.:.:.:.:.:.:.:.:.:.:.:.:.:.:.:.:.:.:.:.",
":.:.:.:.:.:.:.:.:.:.:.:.:.:.:.:.:.:.:.:.:.:.:.:.:.:.:.:.:.:.:.:.:.:.:.:.:.:.:.:.:.:.:.:.:.:.:.:.",
":.:.:.:.:.:.:.:.:.:.:.:.:.:.:.:.:.:.:.:.:.:.:.:.:.:.:.:.:.:.:.:.:.:.:.:.:.:.:.:.:.:.:.:.:.:.:.:.",
":.:.:.:.:.:.:.:.:.:.:.:.:.:.:.:.:.:.:.:.:.:.:.:.:.:.:.:.:.:.:.:.:.:.:.:.:.:.:.:.:.:.:.:.:.:.:.:.",
":.:.:.:.:.:.:.:.:.:.:.:.:.:.:.:.:.:.:.:.:.:.:.:.:.:.:.:.:.:.:.:.:.:.:.:.:.:.:.:.:.:.:.:.:.:.:.:.",
":.:.:.:.:.:.:.:.:.:.:.:.:.:.:.:.:.:.:.:.:.:.:.:.:.:.:.:.:.:.:.:.:.:.:.:.:.:.:.:.:.:.:.:.:.:.:.:.",
":.:.:.:.:.:.:.:.:.:.:.:.:.:.:.:.:.:.:.:.:.:.:.:.:.:.:.:.:.:.:.:.:.:.:.:.:.:.:.:.:.:.:.:.:.:.:.:.",
":.:.:.:.:.:.:.:.:.:.:.:.:.:.:.:.:.:.:.:.:.:.:.:.:.:.:.:.:.:.:.:.:.:.:.:.:.:.:.:.:.:.:.:.:.:.:.:.",
":.:.:.:.:.:.:.:.:.:.:.:.:.:.:.:.:.:.:.:.:.:.:.:.:.:.:.:.:.:.:.:.:.:.:.:.:.:.:.:.:.:.:.:.:.:.:.:."
};
