/* XPM */
static char *result[] = {
/* columns rows colors chars-per-pixel */
"48 48 120 2 ",
"   c #070504",
".  c #090705",
"X  c #0C0906",
"o  c #0F0B08",
"O  c #100B07",
"+  c #130E0A",
"@  c #16100B",
"#  c #1C150D",
"$  c #191712",
"%  c #1F1910",
"&  c #231C0F",
"*  c #201710",
"=  c #271E11",
"-  c #2C2213",
";  c #43351B",
":  c #47381C",
">  c #584624",
",  c #5C4925",
"<  c #5B4B2D",
"1  c #514A3F",
"2  c #614D27",
"3  c #61452D",
"4  c #634C2A",
"5  c #675129",
"6  c #765E2F",
"7  c #6D5230",
"8  c #6D5A36",
"9  c #755436",
"0  c #705B32",
"q  c #795937",
"w  c #7B6231",
"e  c #78643D",
"r  c #574F43",
"t  c #665E50",
"y  c #7F7664",
"u  c #815C3B",
"i  c #86613E",
"p  c #8B673E",
"a  c #89683A",
"s  c #906E3E",
"d  c #92743A",
"f  c #97783C",
"g  c #98793C",
"h  c #8C6542",
"j  c #856F43",
"k  c #8E6843",
"l  c #926B43",
"z  c #997347",
"x  c #9B7248",
"c  c #967C4B",
"v  c #A27C45",
"b  c #A17648",
"n  c #A37D4E",
"m  c #A58341",
"M  c #AA8545",
"N  c #AE8A45",
"B  c #AD844A",
"V  c #B38E47",
"C  c #B48C49",
"Z  c #B88C4F",
"A  c #B59047",
"S  c #BB934C",
"D  c #BF984B",
"F  c #AD8453",
"G  c #A78A53",
"H  c #B28D57",
"J  c #AF9258",
"K  c #BD9051",
"L  c #B8925A",
"P  c #BE9E5F",
"I  c #908673",
"U  c #938975",
"Y  c #C0974D",
"T  c #C49B4E",
"R  c #C69D56",
"E  c #C99D56",
"W  c #CBA150",
"Q  c #D2A654",
"!  c #D5AA54",
"~  c #DAAE56",
"^  c #D7AA5A",
"/  c #DDB057",
"(  c #DFB158",
")  c #E2B559",
"_  c #E8B75E",
"`  c #E7B85B",
"'  c #EBBB5D",
"]  c #C09F60",
"[  c #C2A262",
"{  c #CAA865",
"}  c #D5AB60",
"|  c #D4AD69",
" . c #DBB161",
".. c #D6B26B",
"X. c #DBB46D",
"o. c #DEB96F",
"O. c #E2B761",
"+. c #EDBF62",
"@. c #E5BC72",
"#. c #F1C05F",
"$. c #EBC16E",
"%. c #F2C364",
"&. c #FDCB67",
"*. c #F3C569",
"=. c #F6C86D",
"-. c #FDCC69",
";. c #EBC375",
":. c #F1C570",
">. c #F6CB76",
",. c #FACC72",
"<. c #F5CC7B",
"1. c #F9CF7C",
"2. c #FED076",
"3. c #FDD27D",
"4. c #A29781",
"5. c #AFA38C",
"6. c #BBAE96",
"7. c #CCBEA4",
"8. c #FFD480",
"9. c None",
/* pixels */
"9.9.9.9.9.9.9.9.9.9.9.9.9.9.9.9.9.9.9.9.9.9.9.9.9.9.9.9.9.9.9.9.9.9.9.9.9.9.9.9.9.9.9.9.9.9.9.9.",
"9.9.9.9.9.9.9.9.9.9.9.9.9.9.9.9.9.9.9.9.9.9.9.9.9.9.9.9.9.9.9.9.9.9.9.9.9.9.9.9.9.9.9.9.9.9.9.9.",
"9.9.9.9.9.9.9.9.9.9.9.9.9.9.9.9.9.9.9.9.9.9.9.9.9.9.9.9.9.9.9.9.9.9.9.9.9.9.9.9.9.9.9.9.9.9.9.9.",
"9.9.9.9.9.9.9.9.9.9.9.9.9.9.9.9.9.9.9.9.9.9.9.9.9.9.9.9.9.9.9.9.9.9.9.9.9.9.9.9.9.9.9.9.9.9.9.9.",
"9.9.9.9.9.9.9.9.9.9.9.9.9.9.9.9.9.9.9.9.9.9.9.9.9.9.9.9.9.9.9.9.9.9.9.9.9.9.9.9.9.9.9.9.9.9.9.9.",
"9.9.9.9.9.9.9.9.9.9.9.9.9.9.9.9.9.9.9.9.9.9.9.9.9.9.9.9.9.9.9.9.9.9.9.9.9.9.9.9.9.9.9.9.9.9.9.9.",
"9.9.9.9.9.9.9.9.9.9.9.9.9.9.9.9.9.9.9.9.9.9.9.9.9.9.9.9.9.9.9.9.9.9.9.9.9.9.9.9.9.9.9.9.9.9.9.9.",
"9.9.9.9.9.9.9.9.9.9.9.9.9.9.9.9.9.9.9.9.9.9.9.9.9.9.9.9.9.9.9.9.9.9.9.9.9.9.9.9.9.9.9.9.9.9.9.9.",
"9.9.9.9.9.9.9.9.9.9.9.9.9.9.9.9.9.9.9.9.9.9.9.9.9.9.9.9.9.9.9.9.9.9.9.9.9.9.9.9.9.9.9.9.9.9.9.9.",
"9.9.9.9.9.9.9.9.9.9.9.9.9.9.9.9.9.9.9.9.9.9.9.9.9.9.9.9.9.9.9.9.9.9.9.9.9.9.9.9.9.9.9.9.9.9.9.9.",
"9.9.9.9.9.9.9.9.9.9.9.9.9.9.9.9.9.9.9.9.9.9.9.9.9.9.9.9.9.9.9.9.9.9.9.9.9.9.9.9.9.9.9.9.9.9.9.9.",
"9.9.9.9.9.9.9.9.9.9.9.9.9.9.9.9.9.9.9.9.9.9.9.9.9.9.9.9.9.9.9.9.9.9.9.9.9.9.9.9.9.9.9.9.9.9.9.9.",
"9.9.9.9.9.9.9.9.9.9.9.9.9.9.9.9.9.9.9.9.9.9.9.9.9.9.9.9.9.9.9.9.9.9.9.9.9.9.9.9.9.9.9.9.9.9.9.9.",
"9.9.9.9.9.9.9.9.9.9.9.9.9.9.9.9.9.9.9.[ ;.3.;.X.] 9.9.9.9.9.9.9.9.9.9.9.9.9.9.9.9.9.9.9.9.9.9.9.",
"9.9.9.9.9.9.9.9.9.9.9.9.9.9.    9.P $.3.3.3.3.8.8.<.o.P 9.9.9.9.9.9.9.9.9.9.9.9.9.9.9.9.9.9.9.9.",
"9.9.9.9.9.9.9.9.9.9.9.9.9.9.% 8 | $.O.*.-.-.-.,.8.8.8.3.;.{ 9.9.9.9.9.9.9.9.9.9.9.9.9.9.9.9.9.9.",
"9.9.9.9.9.9.9.9.9.9.9.9.9.9.J 3.;.S B Z Y E _ &.1.8.8.8.8.8.@.] 9.9.9.9.9.9.9.9.9.9.9.9.9.9.9.9.",
"9.9.9.9.9.9.9.9.9.9.9.9.9.e 1.8.@.z k k k l x ^ >.8.8.1.1.8.8.8...9.9.9.9.9.9.9.9.9.9.9.9.9.9.9.",
"9.9.9.9.9.9.9.9.9.9.9.9.< X.8.8.8.| n k h l n X.8.8.} E E  .<.8.8.@.9.9.9.9.9.9.9.9.9.9.9.9.9.9.",
"9.9.9.9.9.9.9.9.9.j c G ;.8.8.8.8.3.<.@.@.@.1.8.8.@.x u i v @.8.8.8.X.9.9.9.9.9.9.9.9.9.9.9.9.9.",
"9.9.9.9.9.X   @ e ;.8.8.8.8.8.8.8.8.8.8.8.8.8.8.8.8...H L | 1.8.2.,.+.9.9.9.9.9.9.9.9.9.9.9.9.9.",
"9.9.9.9.9.. X 8 :.3.3.8.8.3.8.8.8.8.8.8.8.8.8.8.8.8.8.8.3.2.,.*.%.%.' 9.9.9.9.9.9.9.9.9.9.9.9.9.",
"9.9.9.9.9.X X 6 #.%.%.*.=.,.1.2.1.3.8.8.8.8.8.8.3.1.,.-.%.' ) _ #.#.` 9.9.9.9.9.9.9.9.9.9.9.9.9.",
"9.9.9.9.9.  X ; ( %.' ' ' #.' ' +.%.*.*.*.*.*.+.+.) W A d 4 4 B ' ' ) 9.9.9.9.9.9.9.9.9.9.9.9.9.",
"9.9.9.9.9.. X & T ' ` ' ( Q ) ' ` Q ( ' ` ' ' T 6 ; - # @ + * 7 V Y d = X 9.9.9.9.9.9.9.9.9.X 9.",
"9.9.9.9.9.o o X d ' ` ~ a q v ) Y 9 N ) ` ` ` ( S > @ + + @ + # = = @ O o 9.9.9.9.9.9.9.9.o o 9.",
"9.9.9.1 o X o X , ( ` N 3 9 a T Y a A ( ) ` ) ` ` Q 2 + @ + + + + + O o 9.9.9.9.9.9.9.9.9.+ 9.9.",
"9.I 7.U o X X X - W ) z 3 9 l T / ! / ) ( ( ( ( ) ) D - + + @ + + + O + 9.9.9.9.9.9.9.9.+ O 9.9.",
"9.9.6.t X X X X @ f ) W a l C ! / / / / / / / ( ( ( ~ > + + + + + o + + 9.9.9.9.9.9.9.+ + o 9.9.",
"9.9.9.$ X o X o X ; d m A D W ! ~ ! ~ / / ~ ~ ~ ~ ~ ~ 6 + + + + + + + + 9.9.9.9.9.9.O + + 9.9.9.",
"9.9.9.9.9.. X X X X X # - : w g m m M N N N N N N N M - + + + + + + + + 9.9.9.9.9.+ + + + 9.9.9.",
"9.9.9.9.9.9.9.9.9.9.9.9.9.9.9.9.9.9.9.9.9.9.9.9.9.9.9.o + + o + + + + + + 9.9.9.+ + + + 9.9.9.9.",
"9.9.9.9.9.9.9.9.9.9.9.9.9.9.9.9.9.9.9.9.9.9.9.9.9.9.9.+ + + + + + + + @ + + + + + + + + 9.9.9.9.",
"9.9.9.9.9.9.9.9.9.9.9.9.9.9.9.9.9.9.9.9.9.9.9.9.9.9.o + o + + + + + + + + @ + @ @ + + 9.9.9.9.9.",
"9.9.9.9.9.9.9.9.9.9.9.9.9.9.9.9.9.9.9.9.9.9.9.9.9.9.o O + @ + + @ + @ + + + + + + + O 9.9.9.9.9.",
"9.9.9.9.9.9.9.9.9.9.9.9.9.9.9.9.9.9.9.9.9.9.9.9.9.X o + + + @ @ + + @ + @ + + + + + 9.9.9.9.9.9.",
"9.9.9.9.9.9.9.9.9.9.9.9.9.9.9.9.9.9.9.9.9.9.9.9.9.9.9.+ + + + + + @ @ + + @ + + + 9.9.9.9.9.9.9.",
"9.9.9.9.9.9.9.9.9.9.9.9.9.9.9.9.9.9.9.9.9.9.9.9.9.9.9.9.+ + @ + + + + + + + + + 9.9.9.9.9.9.9.9.",
"9.9.9.9.9.9.9.9.9.9.9.9.9.9.9.9.9.9.9.9.9.9.9.9.9.9.9.o + + + + @ @ + @ @ @ + + 9.9.9.9.9.9.9.9.",
"9.9.9.9.9.9.9.9.9.9.9.9.9.9.9.9.9.9.9.9.9.9.9.9.9.9.9.+ + @ @ + + + + + + + + 9.9.9.9.9.9.9.9.9.",
"9.9.9.9.9.9.9.9.9.9.9.9.9.9.9.9.9.9.9.9.9.9.9.9.9.9.9.+ + + + @ @ + + + + + 9.9.9.9.9.9.9.9.9.9.",
"9.9.9.9.9.9.9.9.9.9.9.9.9.9.9.9.9.9.9.9.9.9.9.9.9.9.9.+ @ @ + + + + @ + O 9.9.9.9.9.9.9.9.9.9.9.",
"9.9.9.9.9.9.9.9.9.9.9.9.9.9.9.9.9.9.9.9.9.9.9.9.9.9.+ + + + + + + @ + O 9.9.9.9.9.9.9.9.9.9.9.9.",
"9.9.9.9.9.9.9.9.9.9.9.9.9.9.9.9.9.9.9.9.9.9.9.9.9.o + + + @ + + + + 9.9.9.9.9.9.9.9.9.9.9.9.9.9.",
"9.9.9.9.9.9.9.9.9.9.9.9.9.9.9.9.9.9.9.9.9.9.9.9.9.+ + @ + + + + o 9.9.9.9.9.9.9.9.9.9.9.9.9.9.9.",
"9.9.9.9.9.9.9.9.9.9.9.9.9.9.9.9.9.9.9.9.9.9.9.9.5.r + + + + X 9.9.9.9.9.9.9.9.9.9.9.9.9.9.9.9.9.",
"9.9.9.9.9.9.9.9.9.9.9.9.9.9.9.9.9.9.9.9.9.9.9.4.7.y + o 9.9.9.9.9.9.9.9.9.9.9.9.9.9.9.9.9.9.9.9.",
"9.9.9.9.9.9.9.9.9.9.9.9.9.9.9.9.9.9.9.9.9.9.9.9.9.9.9.9.9.9.9.9.9.9.9.9.9.9.9.9.9.9.9.9.9.9.9.9."
};
