/* XPM */
static char *result[] = {
/* columns rows colors chars-per-pixel */
"48 48 119 2 ",
"   c #060503",
".  c #090705",
"X  c #0C0906",
"o  c #0F0B08",
"O  c #100B07",
"+  c #130E0A",
"@  c #16110B",
"#  c #1D160E",
"$  c #191712",
"%  c #231C0F",
"&  c #241D11",
"*  c #2A1F12",
"=  c #2D2414",
"-  c #302614",
";  c #45371F",
":  c #47381D",
">  c #4B3C1E",
",  c #4E4027",
"<  c #594624",
"1  c #5E4A26",
"2  c #504228",
"3  c #514A3F",
"4  c #61452D",
"5  c #624E28",
"6  c #69532A",
"7  c #70592F",
"8  c #695735",
"9  c #6D5934",
"0  c #735236",
"q  c #795B34",
"w  c #725F39",
"e  c #7D6537",
"r  c #78643C",
"t  c #574F43",
"y  c #665E50",
"u  c #7F7664",
"i  c #845F3C",
"p  c #86643B",
"a  c #8A653F",
"s  c #8C6B3B",
"d  c #906C3F",
"f  c #95773B",
"g  c #96783C",
"h  c #9B7B3D",
"j  c #8D6642",
"k  c #926B44",
"l  c #997447",
"z  c #987A42",
"x  c #9A7248",
"c  c #A27C45",
"v  c #A17748",
"b  c #A17B4D",
"n  c #9F8450",
"m  c #A58341",
"M  c #AC8745",
"N  c #AE8A45",
"B  c #AE854B",
"V  c #B08A47",
"C  c #B38C49",
"Z  c #BB944A",
"A  c #A18651",
"S  c #AA8252",
"D  c #A78A53",
"F  c #AF8A56",
"G  c #B98D50",
"H  c #BE9251",
"J  c #BC9955",
"K  c #B69059",
"L  c #BC9C5E",
"P  c #908673",
"I  c #938975",
"U  c #C39B4D",
"Y  c #C89F4F",
"T  c #C79D57",
"R  c #CA9E53",
"E  c #CBA153",
"W  c #CCA559",
"Q  c #D3A754",
"!  c #D5AA55",
"~  c #DAAE56",
"^  c #D8AB5A",
"/  c #DDB057",
"(  c #DEB158",
")  c #E2B459",
"_  c #E7B85B",
"`  c #EBBB5D",
"'  c #C4A362",
"]  c #CAA764",
"[  c #D4AB64",
"{  c #D5AD6A",
"}  c #D6B066",
"|  c #DDB262",
" . c #D6B26B",
".. c #DAB46C",
"X. c #E4B963",
"o. c #EDBF63",
"O. c #E3BB71",
"+. c #F2C15F",
"@. c #EBC16E",
"#. c #F2C262",
"$. c #FBCA67",
"%. c #F4C569",
"&. c #F6C86E",
"*. c #FFCE69",
"=. c #E7C074",
"-. c #EBC375",
";. c #F0C571",
":. c #F6CB75",
">. c #F9CC73",
",. c #F3CA7A",
"<. c #F9CE7B",
"1. c #FFD075",
"2. c #FDD27D",
"3. c #A29781",
"4. c #AFA38C",
"5. c #BBAE96",
"6. c #CCBEA4",
"7. c #FFD480",
"8. c None",
/* pixels */
"8.8.8.8.8.8.8.8.8.8.8.8.8.8.8.8.8.8.8.8.8.8.8.8.8.8.8.8.8.8.8.8.8.8.8.8.8.8.8.8.8.8.8.8.8.8.8.8.",
"8.8.8.8.8.8.8.8.8.8.8.8.8.8.8.8.8.8.8.8.8.8.8.8.8.8.8.8.8.8.8.8.8.8.8.8.8.8.8.8.8.8.8.8.8.8.8.8.",
"8.8.8.8.8.8.8.8.8.8.8.8.8.8.8.8.8.8.8.8.8.8.8.8.8.8.8.8.8.8.8.8.8.8.8.8.8.8.8.8.8.8.8.8.8.8.8.8.",
"8.8.8.8.8.8.8.8.8.8.8.8.8.8.8.8.8.8.8.8.8.8.8.8.8.8.8.8.8.8.8.8.8.8.8.8.8.8.8.8.8.8.8.8.8.8.8.8.",
"8.8.8.8.8.8.8.8.8.8.8.8.8.8.8.8.8.8.8.8.8.8.8.8.8.8.8.8.8.8.8.8.8.8.8.8.8.8.8.8.8.8.8.8.8.8.8.8.",
"8.8.8.8.8.8.8.8.8.8.8.8.8.8.8.8.8.8.8.8.8.8.8.8.8.8.8.8.8.8.8.8.8.8.8.8.8.8.8.8.8.8.8.8.8.8.8.8.",
"8.8.8.8.8.8.8.8.8.8.8.8.8.8.8.8.8.8.8.8.8.8.8.8.8.8.8.8.8.8.8.8.8.8.8.8.8.8.8.8.8.8.8.8.8.8.8.8.",
"8.8.8.8.8.8.8.8.8.8.8.8.8.8.8.8.8.8.8.8.8.8.8.8.8.8.8.8.8.8.8.8.8.8.8.8.8.8.8.8.8.8.8.8.8.8.8.8.",
"8.8.8.8.8.8.8.8.8.8.8.8.8.8.8.8.8.8.8.8.8.8.8.8.8.8.8.8.8.8.8.8.8.8.8.8.8.8.8.8.8.8.8.8.8.8.8.8.",
"8.8.8.8.8.8.8.8.8.8.8.8.8.8.8.8.8.8.8.8.8.8.8.8.8.8.8.8.8.8.8.8.8.8.8.8.8.8.8.8.8.8.8.8.8.8.8.8.",
"8.8.8.8.8.8.8.8.8.8.8.8.8.8.8.8.8.8.8.8.8.8.8.8.8.8.8.8.8.8.8.8.8.8.8.8.8.8.8.8.8.8.8.8.8.8.8.8.",
"8.8.8.8.8.8.8.8.8.8.8.8.8.8.8.8.8.8.8.8.8.8.8.8.8.8.8.8.8.8.8.8.8.8.8.8.8.8.8.8.8.8.8.8.8.8.8.8.",
"8.8.8.8.8.8.8.8.8.8.8.8.8.8.8.8.8.8.8.8.8.8.8.8.8.8.8.8.8.8.8.8.8.8.8.8.8.8.8.8.8.8.8.8.8.8.8.8.",
"8.8.8.8.8.8.8.8.8.8.8.8.8.8.8.8.8.8.8.8.8.8.8.8.8.8.8.8.8.8.8.8.8.8.8.8.8.8.8.8.8.8.8.8.8.8.8.8.",
"8.8.8.8.8.8.8.8.8.8.8.8.8.8.. . 8.8.8.' -.,.-. .L 8.8.8.8.8.8.8.8.8.8.8.8.8.8.8.8.8.8.8.8.8.8.8.",
"8.8.8.8.8.8.8.8.8.8.8.8.8.8.. . = A O.2.2.2.2.7.7.,...L 8.8.8.8.8.8.8.8.8.8.8.8.8.8.8.8.8.8.8.8.",
"8.8.8.8.8.8.8.8.8.8.8.8.8.8.# 8 ] @.X.$.$.*.*.<.7.7.7.2.-.' 8.8.8.8.8.8.8.8.8.8.8.8.8.8.8.8.8.8.",
"8.8.8.8.8.8.8.8.8.8.8.8.8.$ D <.-.Z B G U R X.$.<.7.7.2.7.7.-.L 8.8.8.8.8.8.8.8.8.8.8.8.8.8.8.8.",
"8.8.8.8.8.8.8.8.8.8.8.8.. 9 2.7.O.x j k k k v ^ :.7.7.2.2.7.7.2. .8.8.8.8.8.8.8.8.8.8.8.8.8.8.8.",
"8.8.8.8.8.8.8.8.8.    + 2 ..7.7.7.{ b j j k S { 2.<.[ T E | ,.7.7.O.8.8.8.8.8.8.8.8.8.8.8.8.8.8.",
"8.8.8.8.8.X . . o , r n =.7.7.7.7.7.,.O.{ O.,.7.7.-.l p j v @.7.2.7...8.8.8.8.8.8.8.8.8.8.8.8.8.",
"8.8.8.8.8.. o @ r =.7.7.7.7.7.7.7.7.7.7.7.7.7.7.7.7. .F F { <.7.2.>.#.8.8.8.8.8.8.8.8.8.8.8.8.8.",
"8.8.8.8.8.. X 7 -.2.2.7.2.7.7.2.7.7.7.7.7.7.7.7.7.7.7.7.2.1.>.%.#.+._ 8.8.8.8.8.8.8.8.8.8.8.8.8.",
"8.8.8.8.8.. X q +.#.#.%.&.>.<.<.<.7.7.7.7.7.7.7.2.-.} J z 7 g ` +.#.` 8.8.8.8.8.8.8.8.8.8.8.8.8.",
"8.8.8.8.8.. . : ) ` ` ` ` +.` o.o.%.%.%.%.%.%.W e ; = # + + * s E U f = . 8.8.8.8.8.8.8.8.8.. 8.",
"8.8.8.8.8.o o % U ` ` ` ) ! ) ` _ Q ~ ` _ ` ` ) Z < @ + + @ + # = & @ X X 8.8.8.8.8.8.8.8.X X 8.",
"8.8.8.3 o X o o f _ _ ~ s q c ) U q N _ _ _ _ _ ` ! 5 + + + + + + + + O 8.8.8.8.8.8.8.8.8.+ 8.8.",
"8.P 6.I + o o . 1 / _ N 4 0 a U Z p C ) _ ) ) _ ) _ U = + @ + + + + X o 8.8.8.8.8.8.8.8.+ + 8.8.",
"8.8.5.y . o X . - Y ) c 4 q d Y ( Q ~ ) ) ( ) / ( ) / < + + + + + + + + 8.8.8.8.8.8.8.+ + o 8.8.",
"8.8.8.$ . o o o + h ) Y a d V Q ( ( ) ~ ~ ( / / ( ~ / 6 + + + + O + + + 8.8.8.8.8.8.O + + 8.8.8.",
"8.8.8.8.8.. . . . > m Z U U E ! ~ ~ ~ ~ ~ / / ~ ~ ( ~ 1 o + + + + @ + + 8.8.8.8.8.+ + + + 8.8.8.",
"8.8.8.8.8.8.8.8.8.8.8.8.8.8.8.h m m M M N N N N N N h = + + o + + + + + + 8.8.8.+ + + + 8.8.8.8.",
"8.8.8.8.8.8.8.8.8.8.8.8.8.8.8.8.8.8.8.8.8.8.8.8.8.8.8.+ + o + + + + + @ + + + + + + + + 8.8.8.8.",
"8.8.8.8.8.8.8.8.8.8.8.8.8.8.8.8.8.8.8.8.8.8.8.8.8.8.X + + + + + + + + + + @ + @ + @ + 8.8.8.8.8.",
"8.8.8.8.8.8.8.8.8.8.8.8.8.8.8.8.8.8.8.8.8.8.8.8.8.8.X + + + + @ + + @ + + + + + + + O 8.8.8.8.8.",
"8.8.8.8.8.8.8.8.8.8.8.8.8.8.8.8.8.8.8.8.8.8.8.8.8.X X + @ + + + + @ + + + @ + + @ + 8.8.8.8.8.8.",
"8.8.8.8.8.8.8.8.8.8.8.8.8.8.8.8.8.8.8.8.8.8.8.8.8.8.8.+ + + + + @ + @ + + + + + + 8.8.8.8.8.8.8.",
"8.8.8.8.8.8.8.8.8.8.8.8.8.8.8.8.8.8.8.8.8.8.8.8.8.8.8.8.+ + @ + @ + + + + @ + + 8.8.8.8.8.8.8.8.",
"8.8.8.8.8.8.8.8.8.8.8.8.8.8.8.8.8.8.8.8.8.8.8.8.8.8.8.X + + + + + @ + @ + + + + 8.8.8.8.8.8.8.8.",
"8.8.8.8.8.8.8.8.8.8.8.8.8.8.8.8.8.8.8.8.8.8.8.8.8.8.8.+ + @ + @ + + + + @ + + 8.8.8.8.8.8.8.8.8.",
"8.8.8.8.8.8.8.8.8.8.8.8.8.8.8.8.8.8.8.8.8.8.8.8.8.8.8.+ + + + @ @ + + + + + 8.8.8.8.8.8.8.8.8.8.",
"8.8.8.8.8.8.8.8.8.8.8.8.8.8.8.8.8.8.8.8.8.8.8.8.8.8.8.+ + @ + + + + @ + O 8.8.8.8.8.8.8.8.8.8.8.",
"8.8.8.8.8.8.8.8.8.8.8.8.8.8.8.8.8.8.8.8.8.8.8.8.8.8.o + @ + + + + + + O 8.8.8.8.8.8.8.8.8.8.8.8.",
"8.8.8.8.8.8.8.8.8.8.8.8.8.8.8.8.8.8.8.8.8.8.8.8.8.X + @ + + @ @ + + 8.8.8.8.8.8.8.8.8.8.8.8.8.8.",
"8.8.8.8.8.8.8.8.8.8.8.8.8.8.8.8.8.8.8.8.8.8.8.8.8.+ @ + @ @ o + O 8.8.8.8.8.8.8.8.8.8.8.8.8.8.8.",
"8.8.8.8.8.8.8.8.8.8.8.8.8.8.8.8.8.8.8.8.8.8.8.8.4.t + + + @ X 8.8.8.8.8.8.8.8.8.8.8.8.8.8.8.8.8.",
"8.8.8.8.8.8.8.8.8.8.8.8.8.8.8.8.8.8.8.8.8.8.8.3.6.u + X 8.8.8.8.8.8.8.8.8.8.8.8.8.8.8.8.8.8.8.8.",
"8.8.8.8.8.8.8.8.8.8.8.8.8.8.8.8.8.8.8.8.8.8.8.8.8.8.8.8.8.8.8.8.8.8.8.8.8.8.8.8.8.8.8.8.8.8.8.8."
};
