/* XPM */
static char *result[] = {
/* columns rows colors chars-per-pixel */
"48 48 105 2 ",
"   c #070604",
".  c #090705",
"X  c #0D0A07",
"o  c #0F0B08",
"O  c #130E09",
"+  c #16110A",
"@  c #1B140D",
"#  c #251E12",
"$  c #46361D",
"%  c #4D3E23",
"&  c #503B25",
"*  c #614D27",
"=  c #61462D",
"-  c #634E28",
";  c #675129",
":  c #6C552B",
">  c #735B2E",
",  c #665533",
"<  c #6F5C38",
"1  c #735236",
"2  c #795937",
"3  c #796237",
"4  c #75603B",
"5  c #544E43",
"6  c #5A5245",
"7  c #85623B",
"8  c #8B653F",
"9  c #8C6A3C",
"0  c #906C3E",
"q  c #95763B",
"w  c #9C7C3E",
"e  c #8D6742",
"r  c #906743",
"t  c #926B43",
"y  c #897245",
"u  c #997347",
"i  c #9A7148",
"p  c #9F784C",
"a  c #A37D45",
"s  c #A27849",
"d  c #847A69",
"f  c #9A804D",
"g  c #A58442",
"h  c #AA8843",
"j  c #AD8648",
"k  c #AF8848",
"l  c #B28E46",
"z  c #B0864B",
"x  c #B28A49",
"c  c #B79248",
"v  c #BD954B",
"b  c #AB8452",
"n  c #A88B54",
"m  c #B38D57",
"M  c #BC8F51",
"N  c #BF9550",
"B  c #B7985C",
"V  c #BB9B5D",
"C  c #C49B4E",
"Z  c #C09353",
"A  c #C99F57",
"S  c #CEA353",
"D  c #CBA258",
"F  c #D1A653",
"G  c #D6AA54",
"H  c #DBAE56",
"J  c #DAAC5A",
"K  c #DDB157",
"L  c #DEB158",
"P  c #E2B459",
"I  c #E7B85B",
"U  c #ECBC5D",
"Y  c #F0BF5F",
"T  c #C5A463",
"R  c #D1A967",
"E  c #D9AF63",
"W  c #D4AD69",
"Q  c #D9AF68",
"!  c #DEB463",
"~  c #D6B26B",
"^  c #D9B56D",
"/  c #DDB86F",
"(  c #E5BA64",
")  c #EEBE62",
"_  c #E0B76F",
"`  c #E3BB71",
"'  c #F1C05F",
"]  c #EBC16F",
"[  c #F2C264",
"{  c #FCCA67",
"}  c #F4C66A",
"|  c #F7C96E",
" . c #FFCD69",
".. c #E7C074",
"X. c #EBC274",
"o. c #F6CB75",
"O. c #FACD74",
"+. c #F0C778",
"@. c #F4CB7A",
"#. c #F9CF7C",
"$. c #FFD175",
"%. c #FDD27D",
"&. c #A19681",
"*. c #FFD480",
"=. c None",
/* pixels */
"=.=.=.=.=.=.=.=.=.=.=.=.=.=.=.=.=.=.=.=.=.=.=.=.=.=.=.=.=.=.=.=.=.=.=.=.=.=.=.=.=.=.=.=.=.=.=.=.",
"=.=.=.=.=.=.=.=.=.=.=.=.=.=.=.=.=.=.=.=.=.=.=.=.=.=.=.=.=.=.=.=.=.=.=.=.=.=.=.=.=.=.=.=.=.=.=.=.",
"=.=.=.=.=.=.=.=.=.=.=.=.=.=.=.=.=.=.=.=.=.=.=.=.=.=.=.=.=.=.=.=.=.=.=.=.=.=.=.=.=.=.=.=.=.=.=.=.",
"=.=.=.=.=.=.=.=.=.=.=.=.=.=.=.=.=.=.=.=.=.=.=.=.=.=.=.=.=.=.=.=.=.=.=.=.=.=.=.=.=.=.=.=.=.=.=.=.",
"=.=.=.=.=.=.=.=.=.=.=.=.=.=.=.=.=.=.=.=.=.=.=.=.=.=.=.=.=.=.=.=.=.=.=.=.=.=.=.=.=.=.=.=.=.=.=.=.",
"=.=.=.=.=.=.=.=.=.=.=.=.=.=.=.=.=.=.=.=.=.=.=.=.=.=.=.=.=.=.=.=.=.=.=.=.=.=.=.=.=.=.=.=.=.=.=.=.",
"=.=.=.=.=.=.=.=.=.=.=.=.=.=.=.=.=.=.=.=.=.=.=.=.=.=.=.=.=.=.=.=.=.=.=.=.=.=.=.=.=.=.=.=.=.=.=.=.",
"=.=.=.=.=.=.=.=.=.=.=.=.=.=.=.=.=.=.=.=.=.=.=.=.=.=.=.=.=.=.=.=.=.=.=.=.=.=.=.=.=.=.=.=.=.=.=.=.",
"=.=.=.=.=.=.=.=.=.=.=.=.=.=.=.=.=.=.=.=.=.=.=.=.=.=.=.=.=.=.=.=.=.=.=.=.=.=.=.=.=.=.=.=.=.=.=.=.",
"=.=.=.=.=.=.=.=.=.=.=.=.=.=.=.=.=.=.=.=.=.=.=.=.=.=.=.=.=.=.=.=.=.=.=.=.=.=.=.=.=.=.=.=.=.=.=.=.",
"=.=.=.=.=.=.=.=.=.=.=.=.=.=.=.=.=.=.=.=.=.=.=.=.=.=.=.=.=.=.=.=.=.=.=.=.=.=.=.=.=.=.=.=.=.=.=.=.",
"=.=.=.=.=.=.=.=.=.=.=.=.=.=.=.=.=.=.=.=.=.=.=.=.=.=.=.=.=.=.=.=.=.=.=.=.=.=.=.=.=.=.=.=.=.=.=.=.",
"=.=.=.=.=.=.=.=.=.=.=.=.=.=.=.=.=.=.=.=.=.=.=.=.=.=.=.=.=.=.=.=.=.=.=.=.=.=.=.=.=.=.=.=.=.=.=.=.",
"=.=.=.=.=.=.=.=.=.=.=.=.=.=.=.=.=.=.=.=.=.=.=.=.=.=.=.=.=.=.=.=.=.=.=.=.=.=.=.=.=.=.=.=.=.=.=.=.",
"=.=.=.=.=.=.=.=.=.=.=.=.=.=.=.=.=.=.=.=.=.=.=.=.=.=.=.=.=.=.=.=.=.=.=.=.=.=.=.=.=.=.=.=.=.=.=.=.",
"=.=.=.=.=.=.=.=.=.=.=.=.=.=.=.=.=.=.=.V ..@...~ V =.=.=.=.=.=.=.=.=.=.=.=.=.=.=.=.=.=.=.=.=.=.=.",
"=.=.=.=.=.=.=.=.=.=.=.=.=.=.=.=.=.B ` %.%.%.%.*.%.+.^ V =.=.=.=.=.=.=.=.=.=.=.=.=.=.=.=.=.=.=.=.",
"=.=.=.=.=.=.=.=.=.=.=.=.=.=.=.y / ] ( {  . . .$.*.*.*.%...T =.=.=.=.=.=.=.=.=.=.=.=.=.=.=.=.=.=.",
"=.=.=.=.=.=.=.=.=.=.=.=.=.# n +.X.N j M Z S ) { %.*.*.*.*.*...V =.=.=.=.=.=.=.=.=.=.=.=.=.=.=.=.",
"=.=.=.=.=.          . .   , *.*.` i r r r t s J o.%.%.%.*.*.*.#.W =.=.=.=.=.=.=.=.=.=.=.=.=.=.=.",
"=.=.=.=.=.. o X X . . X % ^ *.*.%.R p e e r b Q *.#.E D D ! #.*.*./ =.=.=.=.=.=.=.=.=.=.=.=.=.=.",
"=.=.=.=.=.X o . o % 4 f ` *.*.*.*.*.@._ W ` @.*.*.+.i 7 7 s ] *.%.%.^ =.=.=.=.=.=.=.=.=.=.=.=.=.",
"=.=.d 5 o . . + < ..*.*.*.*.*.%.*.*.*.*.*.*.*.*.*.*.W b m R #.*.%.O.) =.=.=.=.=.=.=.=.=.=.=.=.=.",
"=.=.=.=.=.=.  3 X.%.*.*.*.*.*.%.*.%.*.*.*.*.*.*.*.*.*.%.%.$.O.} [ [ U =.=.=.=.=.=.=.=.=.=.=.=.=.",
"=.=.=.=.=.=.=.c ' ' [ } | $.#.%.%.*.%.*.*.*.*.%.#.#.O.} [ Y U U U ' U =.=.=.=.=.=.=.=.=.=.=.=.=.",
"=.=.=.=.=.=.=.=.P U U U ' I U ) [ [ } } } } } } [ [ Y Y Y x 7 j U U P =.=.=.=.=.=.=.=.=.=.=.=.=.",
"=.=.=.=.=.=.=.=.F ' I I P K P U I G P U U U U P G G C l q & & 8 S U G =.=.=.=.=.=.=.=.=.=.=.=.=.",
"=.=.=.=.=.=.=.=.v I I H 9 2 g L C 2 k P I P I F q $ # # @ O @ $ - > $ + . =.=.=.=.=.=.=.=.=.X =.",
"=.=.=.=.=.=.=.=.w P I l = 1 e C N 7 x P P P P P K C ; + O O O O O O X o =.=.=.=.=.=.=.=.=.O =.=.",
"=.=.=.=.=.=.=.=.=.F P p = 2 t C H F H P P P P P P P F $ O O + O O o O o =.=.=.=.=.=.=.X O o =.=.",
"=.=.=.=.=.=.=.=.=.c K C 9 9 k F K K L K K L K K K K H * O O O O O O O O =.=.=.=.=.=.O O O =.=.=.",
"=.=.=.=.=.=.=.=.=.=.l C C C S G H H H H H H H H H H S $ o O O O O O O O O =.=.=.o O O O =.=.=.=.",
"=.=.=.=.=.=.=.=.=.=.=.=.=.=.q w g g h l l l l l l l > @ O O O O O O O O O O O O O O O X =.=.=.=.",
"=.=.=.=.=.=.=.=.=.=.=.=.=.=.=.=.=.=.=.=.=.=.=.=.=.=.X O O + O O O O + O O + O + O O o =.=.=.=.=.",
"=.=.=.=.=.=.=.=.=.=.=.=.=.=.=.=.=.=.=.=.=.=.=.=.=.=.. o O O O + O + O O O O O O O o =.=.=.=.=.=.",
"=.=.=.=.=.=.=.=.=.=.=.=.=.=.=.=.=.=.=.=.=.=.=.=.=.=.=.X + O O O O O O + + O O O =.=.=.=.=.=.=.=.",
"=.=.=.=.=.=.=.=.=.=.=.=.=.=.=.=.=.=.=.=.=.=.=.=.=.=.=.O O O O O + O O O O O o =.=.=.=.=.=.=.=.=.",
"=.=.=.=.=.=.=.=.=.=.=.=.=.=.=.=.=.=.=.=.=.=.=.=.=.=.=.O O O + O O + O O O O =.=.=.=.=.=.=.=.=.=.",
"=.=.=.=.=.=.=.=.=.=.=.=.=.=.=.=.=.=.=.=.=.=.=.=.=.=.O O O O + O O O O o =.=.=.=.=.=.=.=.=.=.=.=.",
"=.=.=.=.=.=.=.=.=.=.=.=.=.=.=.=.=.=.=.=.=.=.=.=.=.O O O + O O O O O =.=.=.=.=.=.=.=.=.=.=.=.=.=.",
"=.=.=.=.=.=.=.=.=.=.=.=.=.=.=.=.=.=.=.=.=.=.=.=.&.6 O O O O X =.=.=.=.=.=.=.=.=.=.=.=.=.=.=.=.=.",
"=.=.=.=.=.=.=.=.=.=.=.=.=.=.=.=.=.=.=.=.=.=.=.=.&.=.=.=.=.=.=.=.=.=.=.=.=.=.=.=.=.=.=.=.=.=.=.=.",
"=.=.=.=.=.=.=.=.=.=.=.=.=.=.=.=.=.=.=.=.=.=.=.=.=.=.=.=.=.=.=.=.=.=.=.=.=.=.=.=.=.=.=.=.=.=.=.=.",
"=.=.=.=.=.=.=.=.=.=.=.=.=.=.=.=.=.=.=.=.=.=.=.=.=.=.=.=.=.=.=.=.=.=.=.=.=.=.=.=.=.=.=.=.=.=.=.=.",
"=.=.=.=.=.=.=.=.=.=.=.=.=.=.=.=.=.=.=.=.=.=.=.=.=.=.=.=.=.=.=.=.=.=.=.=.=.=.=.=.=.=.=.=.=.=.=.=.",
"=.=.=.=.=.=.=.=.=.=.=.=.=.=.=.=.=.=.=.=.=.=.=.=.=.=.=.=.=.=.=.=.=.=.=.=.=.=.=.=.=.=.=.=.=.=.=.=.",
"=.=.=.=.=.=.=.=.=.=.=.=.=.=.=.=.=.=.=.=.=.=.=.=.=.=.=.=.=.=.=.=.=.=.=.=.=.=.=.=.=.=.=.=.=.=.=.=.",
"=.=.=.=.=.=.=.=.=.=.=.=.=.=.=.=.=.=.=.=.=.=.=.=.=.=.=.=.=.=.=.=.=.=.=.=.=.=.=.=.=.=.=.=.=.=.=.=."
};
