/* XPM */
static char *result[] = {
/* columns rows colors chars-per-pixel */
"48 48 107 2 ",
"   c #070604",
".  c #090705",
"X  c #0C0A07",
"o  c #0F0B08",
"O  c #130E0A",
"+  c #16100A",
"@  c #1B140D",
"#  c #231C12",
"$  c #2A261F",
"%  c #302316",
"&  c #382C17",
"*  c #352718",
"=  c #362818",
"-  c #483422",
";  c #4D3D26",
":  c #524122",
">  c #54452A",
",  c #59492C",
"<  c #5F4F30",
"1  c #61462D",
"2  c #6B542C",
"3  c #6D5B37",
"4  c #745336",
"5  c #7B5A37",
"6  c #7D5C38",
"7  c #7B663E",
"8  c #585043",
"9  c #6F6759",
"0  c #786F5F",
"q  c #7F7665",
"w  c #8A6E37",
"e  c #86643B",
"r  c #8C673F",
"t  c #8C6A3D",
"y  c #916E3D",
"u  c #95773B",
"i  c #9E7E3E",
"p  c #8C6642",
"a  c #816B41",
"s  c #906743",
"d  c #936B44",
"f  c #947044",
"g  c #997341",
"h  c #9F7C42",
"j  c #9C744A",
"k  c #A47A4A",
"l  c #A77E50",
"z  c #A58343",
"x  c #AE8747",
"c  c #AE8A45",
"v  c #A5854B",
"b  c #AF8748",
"n  c #A7884C",
"m  c #B28E47",
"M  c #B38B4A",
"N  c #B59047",
"B  c #B79248",
"V  c #BB944A",
"C  c #AC8F56",
"Z  c #BF9251",
"A  c #B3965A",
"S  c #BA9B5E",
"D  c #C49C4E",
"F  c #C29653",
"G  c #C9A14F",
"H  c #CCA351",
"J  c #D1A652",
"K  c #D5A954",
"L  c #DAAE56",
"P  c #D1A358",
"I  c #DBAD5B",
"U  c #DCB057",
"Y  c #DEB158",
"T  c #E2B459",
"R  c #E7B85B",
"E  c #EBBB5C",
"W  c #C5A463",
"Q  c #CCA766",
"!  c #CCAA65",
"~  c #D8AE67",
"^  c #D1AC69",
"/  c #DDB461",
"(  c #DCB56E",
")  c #E6BB65",
"_  c #EFBE60",
"`  c #E4BC71",
"'  c #EFC062",
"]  c #ECC36F",
"[  c #F2C264",
"{  c #F4C66B",
"}  c #F5C86C",
"|  c #FECC69",
" . c #E7C074",
".. c #ECC374",
"X. c #EFC678",
"o. c #F1C673",
"O. c #F7CA70",
"+. c #F9CD75",
"@. c #F4CB7A",
"#. c #FBCF78",
"$. c #FFD176",
"%. c #FDD27E",
"&. c #A59983",
"*. c #AB9F89",
"=. c #B3A68F",
"-. c #FFD480",
";. c None",
/* pixels */
";.;.;.;.;.;.;.;.;.;.;.;.;.;.;.;.;.;.;.;.;.;.;.;.;.;.;.;.;.;.;.;.;.;.;.;.;.;.;.;.;.;.;.;.;.;.;.;.",
";.;.;.;.;.;.;.;.;.;.;.;.;.;.;.;.;.;.;.;.;.;.;.;.;.;.;.;.;.;.;.;.;.;.;.;.;.;.;.;.;.;.;.;.;.;.;.;.",
";.;.;.;.;.;.;.;.;.;.;.;.;.;.;.;.;.;.;.;.;.;.;.;.;.;.;.;.;.;.;.;.;.;.;.;.;.;.;.;.;.;.;.;.;.;.;.;.",
";.;.;.;.;.;.;.;.;.;.;.;.;.;.;.;.;.;.;.;.;.;.;.;.;.;.;.;.;.;.;.;.;.;.;.;.;.;.;.;.;.;.;.;.;.;.;.;.",
";.;.;.;.;.;.;.;.;.;.;.;.;.;.;.;.;.;.;.;.;.;.;.;.;.;.;.;.;.;.;.;.;.;.;.;.;.;.;.;.;.;.;.;.;.;.;.;.",
";.;.;.;.;.;.;.;.;.;.;.;.;.;.;.;.;.;.;.;.;.;.;.;.;.;.;.;.;.;.;.;.;.;.;.;.;.;.;.;.;.;.;.;.;.;.;.;.",
";.;.;.;.;.;.;.;.;.;.;.;.;.;.;.;.;.;.;.;.;.;.;.;.;.;.;.;.;.;.;.;.;.;.;.;.;.;.;.;.;.;.;.;.;.;.;.;.",
";.;.;.;.;.;.. . .   X . . ;.;.;.;.;.;.;.;.;.;.;.;.;.;.;.;.;.;.;.;.;.;.;.;.;.;.;.;.;.;.;.;.;.;.;.",
";.;.;.$ X X X X X X X X o X X X X ;.;.;.;.;.;.;.;.;.;.;.;.;.;.;.;.;.;.;.;.;.;.;.;.;.;.;.;.;.;.;.",
";.9 =.0 o X X X o X X o X X X X o o o o ;.;.;.;.;.;.;.;.;.;.;.;.;.;.;.;.;.;.;.;.;.;.;.;.;.;.;.;.",
";.;.;.;.o X X X X X X X o X X X o . o ;.;.;.;.;.;.;.;.;.;.;.;.;.;.;.;.;.;.;.;.;.;.;.;.;.;.;.;.;.",
";.;.;.;.;.X o X X X o X X X X X o ;.;.;.;.;.;.a *.;.;.;.;.;.;.;.;.;.;.;.;.;.;.;.;.;.;.;.;.;.;.;.",
";.;.;.;.;.. X X o X X X X X X X o . ;.;.;.;.;.;.&.8 O O O O X ;.;.;.;.;.;.;.;.;.;.;.;.;.;.;.;.;.",
";.;.;.;.;.X X X X X X X X X X X . . . ;.;.;.;.;.;.O O O O O O O O X ;.;.;.;.;.;.;.;.;.;.;.;.;.;.",
";.;.;.;.;.    .   X . X X X X X X X .   ;.;.;.;.;.;.O O O + O O O O O X ;.;.;.;.;.;.;.;.;.;.;.;.",
";.;.;.;.;.;.;.;.;.;.;..   X X o X o ;.;.;.;.;.;.;.;.;.O O O + O O O O O O ;.;.;.;.;.;.;.;.;.;.;.",
";.;.;.;.;.;.;.;.;.;.;.;.;.X X X . X ;.S ` @.` ^ S ;.;.o O O O + + O O + O O o ;.;.;.;.;.;.;.;.;.",
";.;.;.;.;.;.;.;.;.;.;.;.;.;.  X # 9 ( $.#.-.-.-.-.@.( , O O + O O + + O + O O o ;.;.;.;.;.;.;.;.",
";.;.;.;.;.;.;.;.;.;.;.;.;.;.;.3 Q ] ) } | | | #.@.^ Q < O O O O O O O + O O + O o ;.;.;.;.;.;.;.",
";.;.;.;.;.;.;.;.;.;.;.;.;.;.W %...F b F F P _ | ..a # + O + O + + O + O + O O + O O ;.;.;.;.;.;.",
";.;.;.;.;.;.;.;.;.;.;.;.;.C @.-.` g d d d d k I +. .> O o O O O O O + O O O O O O + O ;.;.;.;.;.",
";.;.;.;.;.;.;.;.;.;.;.;.;.` -.-.#.Q j p p d l ^ -.%.v @ O O O O + O O + + O O O O O O o ;.;.;.;.",
";.;.;.;.;.;.;.;.;.;.A W ..-.-.%.-.-.X.( ^ ( -.-.-.X.d % O O O o O O O O O ;.;.;.o O O O o ;.;.;.",
";.;.;.;.;.;.;.;.C  .#.-.-.-.-.-.-.-.-.-.-.-.-.-.-.%.^ ; O O O O O O O O ;.;.;.;.;.;.o O O ;.;.;.",
";.;.;.;.;.;.;.n { $.%.-.-.-.-.-.-.-.-.-.-.-.-.-.-.-.X.: o O + O O O O O ;.;.;.;.;.;.;.;.O X ;.;.",
";.;.;.;.;.;.;.m _ ' [ } O.$.%.$.%.-.%.-.-.-.-.%.%.` 7 @ + + + o O O X o ;.;.;.;.;.;.;.;.;.O ;.;.",
";.;.;.;.;.;.;.;.T _ _ E E E ' ' _ { { { { { } / z > @ o o + + = : : & + X ;.;.;.;.;.;.;.;.;.X ;.",
";.;.;.;.;.;.;.;.J E E E T I T E R K T E E E R T G c h w 2 = - e D T D ;.;.;.;.;.;.;.;.;.;.;.;.;.",
";.;.;.;.;.;.;.;.V T R L y 5 z T D 5 b T R R R ) E E E _ I 6 5 g H E K ;.;.;.;.;.;.;.;.;.;.;.;.;.",
";.;.;.;.;.;.;.;.i T R M 1 4 r D F e M T R T T T T T T T Y M b D Y T G ;.;.;.;.;.;.;.;.;.;.;.;.;.",
";.;.;.;.;.;.;.;.;.J T h 1 4 d D L J L Y Y T T Y T T Y T T T T Y T T V ;.;.;.;.;.;.;.;.;.;.;.;.;.",
";.;.;.;.;.;.;.;.;.V L D t y b J Y Y Y Y U Y Y Y Y Y Y Y Y Y Y Y Y Y z ;.;.;.;.;.;.;.;.;.;.;.;.;.",
";.;.;.;.;.;.;.;.;.w B D D D H K L L L U L L U L U L L L L K H G D N ;.;.;.;.;.;.;.;.;.;.;.;.;.;.",
";.;.;.;.;.;.;.;.;.;.;.;.;.;.u h z c c N N N N N N N m z i u ;.;.;.;.;.;.;.;.;.;.;.;.;.;.;.;.;.;.",
";.;.;.;.;.;.;.;.;.;.;.;.;.;.;.;.;.;.;.;.;.;.;.;.;.;.;.;.;.;.;.;.;.;.;.;.;.;.;.;.;.;.;.;.;.;.;.;.",
";.;.;.;.;.;.;.;.;.;.;.;.;.;.;.;.;.;.;.;.;.;.;.;.;.;.;.;.;.;.;.;.;.;.;.;.;.;.;.;.;.;.;.;.;.;.;.;.",
";.;.;.;.;.;.;.;.;.;.;.;.;.;.;.;.;.;.;.;.;.;.;.;.;.;.;.;.;.;.;.;.;.;.;.;.;.;.;.;.;.;.;.;.;.;.;.;.",
";.;.;.;.;.;.;.;.;.;.;.;.;.;.;.;.;.;.;.;.;.;.;.;.;.;.;.;.;.;.;.;.;.;.;.;.;.;.;.;.;.;.;.;.;.;.;.;.",
";.;.;.;.;.;.;.;.;.;.;.;.;.;.;.;.;.;.;.;.;.;.;.;.;.;.;.;.;.;.;.;.;.;.;.;.;.;.;.;.;.;.;.;.;.;.;.;.",
";.;.;.;.;.;.;.;.;.;.;.;.;.;.;.;.;.;.;.;.;.;.;.;.;.;.;.;.;.;.;.;.;.;.;.;.;.;.;.;.;.;.;.;.;.;.;.;.",
";.;.;.;.;.;.;.;.;.;.;.;.;.;.;.;.;.;.;.;.;.;.;.;.;.;.;.;.;.;.;.;.;.;.;.;.;.;.;.;.;.;.;.;.;.;.;.;.",
";.;.;.;.;.;.;.;.;.;.;.;.;.;.;.;.;.;.;.;.;.;.;.;.;.;.;.;.;.;.;.;.;.;.;.;.;.;.;.;.;.;.;.;.;.;.;.;.",
";.;.;.;.;.;.;.;.;.;.;.;.;.;.;.;.;.;.;.;.;.;.;.;.;.;.;.;.;.;.;.;.;.;.;.;.;.;.;.;.;.;.;.;.;.;.;.;.",
";.;.;.;.;.;.;.;.;.;.;.;.;.;.;.;.;.;.;.;.;.;.;.;.;.;.;.;.;.;.;.;.;.;.;.;.;.;.;.;.;.;.;.;.;.;.;.;.",
";.;.;.;.;.;.;.;.;.;.;.;.;.;.;.;.;.;.;.;.;.;.;.;.;.;.;.;.;.;.;.;.;.;.;.;.;.;.;.;.;.;.;.;.;.;.;.;.",
";.;.;.;.;.;.;.;.;.;.;.;.;.;.;.;.;.;.;.;.;.;.;.;.;.;.;.;.;.;.;.;.;.;.;.;.;.;.;.;.;.;.;.;.;.;.;.;.",
";.;.;.;.;.;.;.;.;.;.;.;.;.;.;.;.;.;.;.;.;.;.;.;.;.;.;.;.;.;.;.;.;.;.;.;.;.;.;.;.;.;.;.;.;.;.;.;.",
";.;.;.;.;.;.;.;.;.;.;.;.;.;.;.;.;.;.;.;.;.;.;.;.;.;.;.;.;.;.;.;.;.;.;.;.;.;.;.;.;.;.;.;.;.;.;.;."
};
