/* XPM */
static char *f78b0cd3d5ea47aad42ab7fa70d75e9b6UBZbpOLfStwMeaW[] = {
/* columns rows colors chars-per-pixel */
"48 48 163 2 ",
"   c None",
".  c #060606",
"X  c #0B0705",
"o  c #0F0A07",
"O  c #0C0C0C",
"+  c #130D0A",
"@  c #14100E",
"#  c #1D140E",
"$  c #0F0F10",
"%  c #141414",
"&  c #1B1612",
"*  c #1C1815",
"=  c #171718",
"-  c #1B1B1B",
";  c #20150F",
":  c #271A0F",
">  c #2F1E0F",
",  c #221710",
"<  c #241A12",
"1  c #2C1D14",
"2  c #211E1C",
"3  c #301F10",
"4  c #2D2116",
"5  c #24211E",
"6  c #2C241C",
"7  c #322115",
"8  c #392513",
"9  c #372817",
"0  c #3E2915",
"q  c #342419",
"w  c #3A261B",
"e  c #35281B",
"r  c #3A2B1E",
"t  c #3D291C",
"y  c #3E291C",
"u  c #3F2A1D",
"i  c #3B2C1E",
"p  c #3B2D1D",
"a  c #3D2D1D",
"s  c #3F2E1C",
"d  c #3C2D1E",
"f  c #3D2B1C",
"g  c #202020",
"h  c gray13",
"j  c #222222",
"k  c #232323",
"l  c gray14",
"z  c #252525",
"x  c #262727",
"c  c #242424",
"v  c #2A2623",
"b  c #292827",
"n  c #282828",
"m  c #2C2C2C",
"M  c #372F27",
"N  c #3B2E22",
"B  c #3C3023",
"V  c #3F352B",
"C  c #2F2F30",
"Z  c #303030",
"A  c #432C17",
"S  c #412B1E",
"D  c #402B1D",
"F  c #412C1E",
"G  c #432C1F",
"H  c #432D1F",
"J  c #412F1D",
"K  c #442D1F",
"L  c #422D1E",
"P  c #42311D",
"I  c #40301E",
"U  c #43321E",
"Y  c #44331E",
"T  c #46331D",
"R  c #42311F",
"E  c #4A361F",
"W  c #4A341F",
"Q  c #452E20",
"!  c #462F20",
"~  c #472F21",
"^  c #462F21",
"/  c #482F21",
"(  c #403021",
")  c #433223",
"_  c #473021",
"`  c #453324",
"'  c #473525",
"]  c #443322",
"[  c #483021",
"{  c #493122",
"}  c #4A3122",
"|  c #4B3222",
" . c #4C3323",
".. c #493620",
"X. c #4A3620",
"o. c #4B3721",
"O. c #4B3726",
"+. c #4B3423",
"@. c #4C3821",
"#. c #4C3822",
"$. c #4E3922",
"%. c #4F3A23",
"&. c #4F3A22",
"*. c #4E3921",
"=. c #4B3827",
"-. c #4F3B24",
";. c #4D3925",
":. c #4E3B2A",
">. c #4F3B28",
",. c #513625",
"<. c #513C24",
"1. c #523C26",
"2. c #503B28",
"3. c #523E2B",
"4. c #513E2B",
"5. c #533E29",
"6. c #583B28",
"7. c #433830",
"8. c #57432F",
"9. c #56412C",
"0. c #59432D",
"q. c #4F4339",
"w. c #534232",
"e. c #5E4630",
"r. c #5E4832",
"t. c #604933",
"y. c #604934",
"u. c #634C35",
"i. c #644D35",
"p. c #694F36",
"a. c #644F3A",
"s. c #684F38",
"d. c #6A5037",
"f. c #6E5339",
"g. c #6C533A",
"h. c #74593E",
"j. c #615346",
"k. c #6F5B46",
"l. c #705840",
"z. c #745C43",
"x. c #75614D",
"c. c #7A644E",
"v. c #66625E",
"b. c #7A6550",
"n. c #7E6953",
"m. c #736F6D",
"M. c #797674",
"N. c #7F7975",
"B. c #836C54",
"V. c #8C6F52",
"C. c #856F58",
"Z. c #877059",
"A. c #8C755C",
"S. c #90785E",
"D. c #947B61",
"F. c #9A8065",
"G. c #9A8671",
"H. c #A28669",
"J. c #B08F6E",
"K. c #B7997A",
"L. c #8A8887",
"P. c #A3A2A2",
"I. c #C9AB8B",
/* pixels */
"                                                    X + + X                                     ",
"                                            X O + @ # ; ; ; # @ X                               ",
"                                          $ % % @ + # 1 1 1 1 : ; +                             ",
"                                      . $ = - = = % @ # < 1 1 1 1 < # +                         ",
"                                    . % = = = - - = = @ # < 1 1 1 1 1 : +                       ",
"                                  X % = & = - = = - = = + # 1 1 1 1 1 1 , +                     ",
"                                  $ = * & & = * = - - = = @ # 1 1 q 1 3 3 &                     ",
"                                O = = = & & = = = = = - * = + < 1 1 w q 1 < +                   ",
"                              O % = % % & & = = * = = = = = % @ 1 1 1 1 1 1 < +                 ",
"                            . $ % % * * # & = = = = * - - - - @ ; 1 1 1 1 1 1 ,                 ",
"                            O % % % % & # & % * = = = = = - - * + 1 1 1 1 1 1 1 #               ",
"                          . $ % % = % & , # % = = = = - - - - - % ; 1 1 1 1 1 1 1 +             ",
"                          O $ % % % % & # & * = = = = - - - - g - @ 1 1 q 1 3 q w ,             ",
"                        . % % % % % % & , & % = = = - - - - - g 2 = & 1 1 1 1 q y 1 +           ",
"                        + % % % % % % # # , = = - = - - - - - g g - @ 1 1 w 7 q S y <           ",
"                      J 4 % @ % % % % & , & & = - - - - - g - g 2 5 = < w 1 7 q S S q           ",
"                      e q 4 @ % @ % % # & < * = - - - - - - g g g j - ; 1 1 1 y G G w ;         ",
"                    2.i 4 4 4 % % 4 & & , & = - * - - - g g g g j j j % 1 w q w ^ ^ G 1         ",
"                    ;.B p e 6 * * 9 : 4 9 9 * - - - - - - - g g h j l - 1 q q w Q Q ^ w         ",
"                    ' ] ' i q 4 * p 9 s Y 4 = - = - - g g g g g j l z g ; q q w Q ^ ^ Q ,       ",
"                  d.5.:.;.` e q 4 Y Y E p s s p 6 - - - g - h h j l z l * 1 w w Q ^ / / 1       ",
"                  f.r.r.w.=.r e p Y E E @.&.&.&.E e g g g g h k l l z x - 1 w w ^ ^ } / Q       ",
"                  k.y.u.u.5.d d p E @.@.&.&.&.&.&.9.e - g g h k z z x n h < Q w ^ / / ,.Q #     ",
"                  c.a.s.s.5.J I s E @.&.&.&.<.<.&.-.@.g g g k k z z x n x , 3 N Q / } } / 1     ",
"                  c.k.s.s.=.d I d ..@.-.E 9.9.&.9.&.9.s h h c c x x x n n - 3 Q S  . . .,.7     ",
"                D.b.x.g.s.' ] I I ..-.-.&.&.&.&.<.9.<.<.6 h c c x b x n b 2 1 w S {  .,.,.y     ",
"                Z.n.b.h.g.;.] ] ] &.-.-.9.&.&.9.9.9.<.9.B g k c x x b m m 2 1 N y Q  .,.,.Q     ",
"                S.n.n.z.h.9.] ] ] -.@.E 9.&.9.&.9.<.9.0.9.v c c x n n n m c 1 Q S S  .,.,.{ ,   ",
"                S.B.C.c.h.g.:.] B ;.q v.N.9.9.9.9.9.9.0.9.M c x b b n m m b < D S Q Q  .,.,.<   ",
"                A.Z.Z.A.x.1.0.` ..d < L.P.q.9.9.9.9.0.9.9...x c b b m m m b 2 D Q S Q Q ,.6.7   ",
"                A.A.A.S.B.5.;.;.;.i v v.M.e &.9.9.0.9.0.9.9.V x b m m m C m 2 D Q Q Q Q { ,.w   ",
"              F.S.S.S.S.B.Y O.:.-.q.m.6 & : 9.9.9.9.9.w.8.c.G.a.b m m m C C 2 Q Q Q Q Q / / w   ",
"              H.A.A.B.x.:.8 P 1.5.3.7.& ; Q 9.9.3.3.9.w.l.K.I.n.b m m m Z m 2 / ,./ Q / / / q   ",
"              V V M 6 = < 7 w -.5.5.;.N ' 9.0.0.e.0.0.e.d.V.J.w.b m m Z Z Z v K 6.,./ / Q / q   ",
"                O O % % : 8 8 Y 3.0.9.0.0.0.0.0.0.e.t.t.1...s.N m m m Z m Z c Q 6.6./ Q / / q   ",
"                $ % O $ ; 7 8 9 ..0.0.9.5.5.5.>.0.t.0.E A A 0 e m m Z m Z Z c S 6.,.,./ Q / w   ",
"              . $ $ $ $ @ 3 8 8 8 I ..' ' ;.:.1.0.2.K A A A w b m m C m Z Z c S 6.6.,./ / / w   ",
"              . $ $ $ % % : 3 > > 7 f ;.1.1.9.E 8 7 A A A A 6 m m m m m Z Z b d 6.6.,./ / { w + ",
"              . O O O $ + O ; 3 8 8 8 8 9 8 4 3 8 0 0 0 8 < g g 2 g g z z z 2 q G G D q q q 3 + ",
"                                                                              + + + + + + + +   ",
"                                                                                                ",
"                                                                                                ",
"                                                                                                ",
"                                                                                                ",
"                                                                                                ",
"                                                                                                ",
"                                                                                                ",
"                                                                                                "
};
