/* XPM */
static char *result[] = {
/* columns rows colors chars-per-pixel */
"48 48 83 1 ",
"  c #291D13",
". c #2E2116",
"X c #312417",
"o c #342519",
"O c #3B2B1D",
"+ c #412F1F",
"@ c #45321D",
"# c #48341F",
"$ c #443221",
"% c #4A3624",
"& c #4E3926",
"* c #49392C",
"= c #523C26",
"- c #543E29",
"; c #53402E",
": c #5C442C",
"> c #564331",
", c #584533",
"< c #604527",
"1 c #61472E",
"2 c #64492D",
"3 c #6B4D2E",
"4 c #6E512F",
"5 c #654A31",
"6 c #6B4E33",
"7 c #6D5034",
"8 c #68513D",
"9 c #725335",
"0 c #785735",
"q c #7B5A36",
"w c #755639",
"e c #77593C",
"r c #78583A",
"t c #4A4340",
"y c #6C5946",
"u c #6F5C48",
"i c #735A43",
"p c #7E5F41",
"a c #715E4A",
"s c #6B5E53",
"d c #7C634B",
"f c #76695C",
"g c #815E3A",
"h c #85613A",
"j c #89643A",
"k c #846446",
"l c #83664B",
"z c #83684E",
"x c #8A6F57",
"c c #8E7257",
"v c #8F765C",
"b c #947557",
"n c #977759",
"m c #95795E",
"M c #997C5F",
"N c #8B7B6B",
"B c #957B61",
"V c #9B7F64",
"C c #9E8266",
"Z c #A3876A",
"A c #A7896C",
"S c #AB8C6D",
"D c #AF9071",
"F c #B39474",
"G c #B89777",
"H c #BC9975",
"J c #BB9A79",
"K c #C19F7C",
"L c #C3A17F",
"P c #B6B4B3",
"I c #C6A380",
"U c #C9A683",
"Y c #CCA985",
"T c #D2AE89",
"R c #D6B18B",
"E c #DBB58E",
"W c #DEB790",
"Q c #DFB991",
"! c #E4BD94",
"~ c #E9C197",
"^ c #ECC49A",
"/ c #F0C79C",
"( c None",
/* pixels */
"((((((((((((((((((((((((((((((((((((((((((((((((",
"((((((((((((((((((((((((((((((((((((((((((((((((",
"((((((((((((((((((((((((((((((((((((((((((((((((",
"((((((((((((((((((((((((((((((((((((((((((((((((",
"((((((((((((((((((((((((((((((((((((((((((((((((",
"((((((((((((((((((((((((((((((((((((((((((((((((",
"((((((((((((((((((((((((((((((((((((((((((((((((",
"((((((((((((((((((((((((((((((((((((((((((((((((",
"((((((((((((((((((((((((((((((((((((((((((((((((",
"((((((((((((((((((((((((((((((((((((((((((((((((",
"((((((((((((((((((((((((((((((((((((((((((((((((",
"((((((((((((((((((((((((((((((((((((((((((((((((",
"((((((((((((((((((((((((((((((((((((((((((((((((",
"(((((((((((((((((((((((((((((((((((o((((((((((((",
"(((((((((((((((((((((((((((((((((((O((((((((((((",
"(((((((((((((((((((((((((((((((((((+((((((((((((",
"(((((((((((((((((((((((((((((((((((+((((((((((((",
"(((((((((((((((((((((((((((((((((((+((((((((((((",
"(((((((((((((((((((((((((((343(((((@((((((((((((",
"(((((((((((((((((((((((((:334392((X@((((((((((((",
"(((((((((((((((((((((((((90qq726((%=@(((((((((((",
"((((((((((((((((((((((((3r0q9edi2<9g2<((((((((((",
"((((((((((((((((((((((((6rkrzAAx64jjjjq(((((((((",
"((((((((((((((((((((((((qK!KGKJV79jjjjjq((((((((",
"((((((((((((((((((((((((K/~Y~!LM69hjhhhg2(((((((",
"((((((((((((((((((((((((E/!E^^Yc69hggggg9(((((((",
"((((((((((((((((((((((((T^!W^^TM66g5Nlqqq(((((((",
"(((((((((((((((((((((((((~^!E^!Se9r*Pf0rr6((((((",
"(((((((((((((((((((((((((U^EY^/Hrerst$wrwlA(((((",
"(((((((((((((((((((((((((5SML^Eb9rr8O:rer9d(((((",
"(((((((((((((((((((((((+5wwebnk-1wrw77ww5%O(((((",
"((((((((((((((((((((((O5rrrrrwr-%1655,:-%$((((((",
"((((((((((((((((((((((&9errwrrr5+O+--=+$+o((((((",
"(((((((((((((((((((((O&5wrrrrww5&+%-&&-%o(((((((",
"(((((((((((((((((((((,1wrerrew15w66wwww6$ ((((((",
"((((((((((((((((((((v9eerwrrw15rrrwrrrre6%((((((",
"(((vJUYYTYF((((((((Am9rrrrrw96rrr9ww99995-((((((",
"((BSV(((CGRRG(((((FWz9rrrre66rwr6+&=%$%--(((((((",
"(y(((((((((JQEULIT^!i9errwr96rr9%X((((((((((((((",
"((((((((((((CY^^//!Wi6wrrrr96e6-o(((((((((((((((",
"((((((((((((((ZJYYJA,5errrr752&o((((((((((((((((",
"((((((((((((((((aaa((&9rrrr:%$o(((((((((((((((((",
"(((((((((((((((((((((,-9rr7%O(((((((((((((((((((",
"(((((((((((((((((((((B>%::$o((((((((((((((((((((",
"(((((((((((((((((((((JCi>(((((((((((((((((((((((",
"(((((((((((((((((((((CGAB(((((((((((((((((((((((",
"((((((((((((((((((((((B(((((((((((((((((((((((((",
"(((((((((((((((((((((((((((((((((((((((((((((((("
};
