/* XPM */
static char *result[] = {
/* columns rows colors chars-per-pixel */
"48 48 86 1 ",
"  c #271D13",
". c #2F2216",
"X c #342619",
"o c #38271A",
"O c #36281B",
"+ c #3C2B1D",
"@ c #3C322B",
"# c #412E1E",
"$ c #4A351F",
"% c #453222",
"& c #4A3624",
"* c #4E3825",
"= c #4E3B29",
"- c #513B27",
"; c #543D28",
": c #5E4427",
"> c #5C432C",
", c #574432",
"< c #5B4835",
"1 c #60462C",
"2 c #64492C",
"3 c #6A4D2D",
"4 c #6F512F",
"5 c #644A31",
"6 c #6A4E33",
"7 c #644F3A",
"8 c #6E5135",
"9 c #63503D",
"0 c #68533F",
"q c #735435",
"w c #7A5936",
"e c #755639",
"r c #77583A",
"t c #79583A",
"y c #58514E",
"u c #6D5945",
"i c #6F5B48",
"p c #755C44",
"a c #785D43",
"s c #7E6146",
"d c #766453",
"f c #825E37",
"g c #825F39",
"h c #856037",
"j c #86613A",
"k c #8A643A",
"l c #856546",
"z c #886747",
"x c #83684F",
"c c #8B6C4F",
"v c #916F4E",
"b c #856B51",
"n c #8B6F56",
"m c #8D735A",
"M c #907457",
"N c #92765B",
"B c #92785D",
"V c #8B7864",
"C c #977C62",
"Z c #9A7F64",
"A c #827D7B",
"S c #9C8165",
"D c #A08467",
"F c #AA8867",
"G c #A5886B",
"H c #AF9172",
"J c #B39474",
"K c #B79877",
"L c #B89877",
"P c #BC9B7B",
"I c #C09F7D",
"U c #AEA9A6",
"Y c #C9A682",
"T c #CDA985",
"R c #D2AD87",
"E c #D3AF89",
"W c #D6B18B",
"Q c #D9B38C",
"! c #DEB790",
"~ c #DFB891",
"^ c #E0B88F",
"/ c #E4BD94",
"( c #E8BF96",
") c #E9C197",
"_ c #EDC49A",
"` c None",
/* pixels */
"````````````````````````````````````````````````",
"````````````````````````````````````````````````",
"````````````````````````````````````````````````",
"````````````````````````````````````````````````",
"````````````````````````````````````````````````",
"````````````````````````````````````````````````",
"````````````````````````````````````````````````",
"````````````````````````````````````````````````",
"````````````````````````````````````````````````",
"````````````````````````````````````````````````",
"````````````````````````````````````````````````",
"````````````````````````````````````````````````",
"````````````````````````````````````````````````",
"``````````````````````````````````````o`````````",
"`````````````````````````````````````o+`````````",
"`````````````````````````````````````++`````````",
"`````````````````````````````122`````++`````````",
"```````````````````````````:2333q````##`````````",
"```````````````````````````qwww444```##`````````",
"``````````````````````````2eqwqe655`#+#`````````",
"``````````````````````````6zvzsnmp5:22$`````````",
"``````````````````````````F^)IJPJm64ffq2````````",
"``````````````````````````/_(R)RLN3wkkkk4```````",
"``````````````````````````/_//_/Px3wkkgkg```````",
"``````````````````````````!_~/_/Pa6wggggjq``````",
"``````````````````````````R_///_Pl5wggfgjw``````",
"```````````````````````````Q/I/_Tc6tqdVftg>`````",
"````````````````````````````KP__Rlrr;AU8gt6`````",
"```uSPPTTJ```````````````````HTQNqrriy@5tte<````",
"````````PWT`````````````````*```o;rre%%eteaJ````",
"``````````TQ``````````````>eee6>%&1qq68ete6b````",
"```````````YQ````````````>rttttt1++*,>>55;&O````",
"````````````TW``````````%8errte5;&#%*=&#%&+`````",
"`````````````WP````````X*5ett8;6tr1;++%&%o``````",
"`````````````J/K``````Z56ertr6qreet5;-*%X```````",
"``````````````R)TS``VIJeertrrrrr68tre*#`````````",
"```````````````W_/QQ!_mqttrtrqer51tt1#``````````",
"````````````````T(___!pqttrrt6qt5;et>&``````````",
"`````````````````JTEEP7qtrrrtq8re;6a8&``````````",
"``````````````````mZZm=qrtrrtq6rt;;ge&``````````",
"``````````````````````O2trrrt66e5%=t8+``````````",
"```````````````````````*qrrrt>>-+ &q6X``````````",
"```````````````````````O;6rr6%#&``&56```````````",
"````````````````````````+*->7,0S```>;```````````",
"`````````````````````````uumKSCD````````````````",
"```````````````````````````GZ```````````````````",
"````````````````````````````````````````````````",
"````````````````````````````````````````````````"
};
