/* XPM */
static char *result[] = {
/* columns rows colors chars-per-pixel */
"48 48 85 1 ",
"  c #271D12",
". c #2A1D14",
"X c #2C2015",
"o c #312417",
"O c #342619",
"+ c #3B2B1C",
"@ c #402E1F",
"# c #47331F",
"$ c #443222",
"% c #493524",
"& c #4E3926",
"* c #4F3C2A",
"= c #503A26",
"- c #553F2A",
"; c #5B4225",
": c #54402E",
"> c #5D442C",
", c #5B4531",
"< c #51453B",
"1 c #61472C",
"2 c #63492E",
"3 c #6A4E2F",
"4 c #6E502F",
"5 c #654A31",
"6 c #6B4E32",
"7 c #6E5134",
"8 c #66503A",
"9 c #6C533C",
"0 c #735435",
"q c #7B5A37",
"w c #755639",
"e c #76583C",
"r c #78583A",
"t c #685543",
"y c #745A43",
"u c #7B5E42",
"i c #755F49",
"p c #7C6044",
"a c #7D6249",
"s c #796450",
"d c #7F6851",
"f c #706864",
"g c #815E35",
"h c #815E3A",
"j c #846037",
"k c #86613A",
"l c #89643A",
"z c #82664C",
"x c #85694F",
"c c #886A4D",
"v c #8D6F51",
"b c #8C7056",
"n c #8C735B",
"m c #937659",
"M c #957A60",
"N c #9B7F64",
"B c #9B8064",
"V c #A38464",
"C c #AA8765",
"Z c #A4876A",
"A c #A7896D",
"S c #AA8B6D",
"D c #B3906E",
"F c #AD8F70",
"G c #AF9071",
"H c #B39374",
"J c #BA9774",
"K c #BC9C7A",
"L c #C19F7D",
"P c #C4A17E",
"I c #898582",
"U c #BAB5B1",
"Y c #C7A481",
"T c #CAA783",
"R c #CDA986",
"E c #D3AD86",
"W c #D3AE89",
"Q c #D6B18B",
"! c #DBB58E",
"~ c #DEB790",
"^ c #DFB891",
"/ c #E3BB93",
"( c #E9C197",
") c #EDC49A",
"_ c None",
/* pixels */
"________________________________________________",
"________________________________________________",
"________________________________________________",
"________________________________________________",
"________________________________________________",
"________________________________________________",
"________________________________________________",
"________________________________________________",
"________________________________________________",
"________________________________________________",
"________________________________________________",
"________________________________________________",
"________________________________________________",
"________________________________________________",
"________________________________11________+_____",
"_______________________________00432_____++_____",
"______________________________0qqq062____@______",
"_____________________________5wrwwq34____@______",
"_____________________________DEECee951__+@______",
"_____________________________/))TZAMy2__@@______",
"_____________________________/)/Q!LHz1;#@+______",
"_____________________________/)Q()EHz2q02_______",
"_____AKPPH________________+$-P)^()WZ96jl0;______",
"____bGKKT!QF_____________$107V)!Q)Rb66kllg______",
"__________Y~L___________@>wrrzJV/)Ec60klll0_____",
"____________~Y_________+$>rrrrrH))Wc5wkkklq_____",
"_____________!Y_______m,5wrwrwwvKWJu7q7phjh1____",
"______________/R_____HS7rrrrrrrwee6rr6<Uzhh6____",
"______________K)^YGHY/mwrrrwwwrrr,=weyfI8qq7____",
"_______________K/))))/iwrrrrw5wrr2%6re$.5rr6____",
"________________SW^/(T9wwrrrr6ww0>@&6w65wrr7____",
"_________________nGHHN,wrrrrr5>>,>&$%>16wrrus___",
"_____________________t:7rrerw57wrrrw--55606aH___",
"______________________8>rrrrw5wr6wrr5+@$$**%____",
"______________________d*5wrr55rr5,0r0$$$%%@O____",
"______________________As$-2>$>>>%o%70=$$+O______",
"______________________KB_OOXO++O._X-2$X_________",
"______________________H____________+&___________",
"______________________H_________________________",
"________________________________________________",
"________________________________________________",
"________________________________________________",
"________________________________________________",
"________________________________________________",
"________________________________________________",
"________________________________________________",
"________________________________________________",
"________________________________________________"
};
