/* XPM */
static char *result[] = {
/* columns rows colors chars-per-pixel */
"48 48 85 1 ",
"  c #2D2115",
". c #322417",
"X c #352619",
"o c #37281B",
"O c #3C2B1D",
"+ c #412E1F",
"@ c #422F20",
"# c #453321",
"$ c #4A3623",
"% c #4E3926",
"& c #523B27",
"* c #553E29",
"= c #5B432C",
"- c #5A4533",
"; c #5E4A37",
": c #5E4B3A",
"> c #61462C",
", c #654A2D",
"< c #6A4D2E",
"1 c #6E502F",
"2 c #604731",
"3 c #654A31",
"4 c #6A4D33",
"5 c #6E5135",
"6 c #6E533B",
"7 c #725335",
"8 c #785736",
"9 c #7B5A36",
"0 c #755639",
"q c #77583A",
"w c #79583A",
"e c #4E4641",
"r c #6A5845",
"t c #6F5B49",
"y c #735A42",
"u c #7A5D41",
"i c #7E6043",
"p c #79624B",
"a c #7D6751",
"s c #77716F",
"d c #815E36",
"f c #815E3A",
"g c #86623A",
"h c #8A653A",
"j c #816549",
"k c #84684D",
"l c #856E57",
"z c #8A6F56",
"x c #8F7052",
"c c #8C7259",
"v c #937456",
"b c #91755B",
"n c #94785E",
"m c #9B7B5C",
"M c #8B7661",
"N c #957A61",
"B c #997E62",
"V c #9C8064",
"C c #978069",
"Z c #A48362",
"A c #A48669",
"S c #A7896C",
"D c #AE8E6D",
"F c #AD8F70",
"G c #B49475",
"H c #BC9773",
"J c #BC9976",
"K c #BC9B7A",
"L c #C19F7C",
"P c #C2A17E",
"I c #C5A380",
"U c #C9A682",
"Y c #CDA985",
"T c #D0AC86",
"R c #D4AE89",
"E c #D6B18B",
"W c #DBB48E",
"Q c #DDB790",
"! c #DFB891",
"~ c #E5BD95",
"^ c #C4BFBB",
"/ c #E9C097",
"( c #EDC49A",
") c #F0C79D",
"_ c None",
/* pixels */
"________________________________________________",
"____________r___________________________________",
"_____________V__________________________________",
"______________G_________________________________",
"______________FJ________________________________",
"_______________P________________________________",
"_______________GK_______________________________",
"________________Y_______________________________",
"________________U_______________________________",
"________________KK______________________________",
"________________GU______________________________",
"_________________U______________________________",
"_________________Y______________________________",
"_________________Y______________________________",
"_________________R______________________________",
"_________________E______________________________",
"_________________W______________________________",
"_________________!K_____________________________",
"_________________QU_____________________________",
"_________________RW_____________________________",
"_________________I~S_______ .___<111>______oo___",
"_________________F(Y_____o#=43&,8887<<_____O____",
"_________________NW/G___o#3qw037888971=____+____",
"__________________P(~G__#=0ww0vHLZw57<<___O+____",
"__________________AW)~G-70qwwuT))!mczy4___+O____",
"___________________GQ(B0wwqqqfW)/YYLGN6&_o+O____",
"___________________cGLyqwqqq0uR)WW(EKA6*,$$_____",
"____________________lc3wqwqqq4L(W/(~Kn44dd>_____",
"______________________>wwqwqq4m(!E/~Gy<8hh9,____",
"______________________*q8w8wq4uUDU)WA549hhhg,___",
"______________________#0wwqwq45um~(~A0<dgggh8___",
"______________________X*0wqq0200vT~~m67d9dgh9___",
"_______________________@=00w43ww0umvwqw42Mwgf>__",
"________________________#&==&5wwqq7$5qw-s^qff4__",
"________________________:;;pbkyqww7$2qwtee4ww4__",
"_________________________aNKYPB20w4#&7w4+@7ww3__",
"____________________________BB_O7w0%o$3470wqw4__",
"________________________________=qw7##&-=3ww9jC_",
"________________________________o2ww2##$==2426S_",
"_________________________________#4w7+o+O+$%$#__",
"__________________________________%00$#$$$##O___",
"__________________________________o37=O##o______",
"___________________________________&3%O.________",
"____________________________________*$. ________",
"________________________________________________",
"________________________________________________",
"________________________________________________",
"________________________________________________"
};
