/* XPM */
static char *result[] = {
/* columns rows colors chars-per-pixel */
"48 48 82 1 ",
"  c #2D2015",
". c #2C2119",
"X c #342619",
"o c #37281A",
"O c #3D2C1D",
"+ c #3D332D",
"@ c #412F1F",
"# c #443221",
"$ c #4A3624",
"% c #4F3A27",
"& c #4B3928",
"* c #513B27",
"= c #543D28",
"- c #56402B",
"; c #5C432C",
": c #5B4632",
"> c #5C4936",
", c #5C4A39",
"< c #61472E",
"1 c #65492D",
"2 c #6B4E2E",
"3 c #6F512F",
"4 c #72532F",
"5 c #654A31",
"6 c #694D32",
"7 c #634E3A",
"8 c #6E5134",
"9 c #6D533C",
"0 c #735435",
"q c #7B5A35",
"w c #755639",
"e c #77583A",
"r c #79583A",
"t c #695440",
"y c #6E5842",
"u c #60574E",
"i c #755A41",
"p c #7B5D41",
"a c #7E6042",
"s c #7C634C",
"d c #6F6966",
"f c #815E3A",
"g c #836037",
"h c #85613A",
"j c #8A643A",
"k c #826344",
"l c #8A694A",
"z c #866D56",
"x c #8D6E50",
"c c #8F7153",
"v c #8E755C",
"b c #927456",
"n c #997655",
"m c #94775B",
"M c #94795E",
"N c #9B7C5C",
"B c #9A7E62",
"V c #A18367",
"C c #A18468",
"Z c #A78A6D",
"A c #AA8C6E",
"S c #AD8F70",
"D c #B39474",
"F c #B99777",
"G c #BD9B7B",
"H c #C19F7D",
"J c #C3A17E",
"K c #908C89",
"L c #B2AAA2",
"P c #C6A380",
"I c #CAA681",
"U c #CDA985",
"Y c #D1AD87",
"T c #D3AE89",
"R c #D5B08B",
"E c #DBB58E",
"W c #DEB790",
"Q c #E4BD94",
"! c #E8BF96",
"~ c #E8C097",
"^ c #EDC49A",
"/ c None",
/* pixels */
"////////////////////////////////////////////////",
"////////////////////////////////////////////////",
"////////////////////////////////////////////////",
"////////////////////////////////////////////////",
"////////////////////////////////////////////////",
"////////////////////////////////////////////////",
"////////////////////////////////////////////////",
"////////////////////////////////////////////////",
"////////////////////////////////////////////////",
"////////////////////////////////////////////////",
"////////////////////////////////////////////////",
"////////////////////////////////////////////////",
"//////////z/////////////////////////////////////",
"///////////DA///////////////////////////////////",
"////////////JD//////////////////////////////////",
"/////////////U//////////////////////////////////",
"/////////////DU/////////////////////////////////",
"//////////////UF////////////////////////////////",
"//////////////FU//////////////////////////o/////",
"///////////////U//////////////////////////O/////",
"///////////////IH//////////////122231////oO/////",
"///////////////GU//////////////0qqq001///O@/////",
"////////////////Y/////////////200qq023///@O/////",
"////////////////Y/////////////annk9ii6;//@@/////",
"////////////////UD///////////mT!QFVZBi;/$@@/////",
"////////////////UP//////////oB^^EYRHDk<242//////",
"////////////////JE////////o$1N^^E~^UDs5qjq2/////",
"////////////////S~F///////%6rxQ^E^^TC96hjjjq////",
"/////////////////WE//////@<errU^EE^Ym86hjjjj8///",
"/////////////////G^U////O=0rr0nQDT^EN88hjghhq///",
"/////////////////BW^YB//#=<8eeexV~^QNw0qerfhq///",
"//////////////////G~^QTy#:weeee0bUWIlwr1uLeff1//",
"//////////////////vI~^Q7*eeerwrwwpk56re7dK5fr6//",
"///////////////////BPEP=5eeerrw0rrw*;eey+.5rr8//",
"////////////////////vAC&5rrewrw6eww=$6ew=<wrrrs/",
"///////////////////////O6rrrrrw5e606O#;558rrrpS/",
"/////////////////////// 5rerrew56=w0@O#;5;55;=:/",
"////////////////////////=ereerw1<=ww=@$@@##$$O//",
"////////////////////////O5rrrr5===ww=o/O#$$#O///",
"/////////////////////////$6ee0::7=ww&///$#o/////",
"/////////////////////////X$=;:zAM:ee=///////////",
"//////////////////////////,tsADz/;r0#///////////",
"///////////////////////////zZFZ//5r;@X//////////",
"////////////////////////////////@66-Oo//////////",
"/////////////////////////////////;5;////////////",
"////////////////////////////////////////////////",
"////////////////////////////////////////////////",
"////////////////////////////////////////////////"
};
