/* XPM */
static char *result[] = {
/* columns rows colors chars-per-pixel */
"48 48 87 1 ",
"  c #2A1F14",
". c #2D2116",
"X c #302317",
"o c #342619",
"O c #37281A",
"+ c #3D2B1D",
"@ c #412E1F",
"# c #453221",
"$ c #493624",
"% c #4E3926",
"& c #513B26",
"* c #553E29",
"= c #433A35",
"- c #5C4327",
"; c #56402B",
": c #5D442C",
"> c #5C4531",
", c #5E4834",
"< c #5C4A39",
"1 c #61472F",
"2 c #63492D",
"3 c #694D2C",
"4 c #6F502D",
"5 c #654A31",
"6 c #6B4E33",
"7 c #654F3A",
"8 c #6F5135",
"9 c #6E543B",
"0 c #735434",
"q c #785735",
"w c #7C5A37",
"e c #755639",
"r c #785739",
"t c #77583A",
"y c #79593A",
"u c #554E4A",
"i c #615040",
"p c #685441",
"a c #6E5843",
"s c #735B44",
"d c #7D5F42",
"f c #755F4B",
"g c #7F6143",
"h c #7E654D",
"j c #6D6763",
"k c #835F37",
"l c #825F3A",
"z c #856037",
"x c #856139",
"c c #89643A",
"v c #81674F",
"b c #86694E",
"n c #876C52",
"m c #886E57",
"M c #8B735A",
"N c #967555",
"B c #92775D",
"V c #95795E",
"C c #937960",
"Z c #9D7F60",
"A c #9F8264",
"S c #958574",
"D c #A38262",
"F c #A3866A",
"G c #A6896C",
"H c #AA8C6E",
"J c #B38F6C",
"K c #AD8E70",
"L c #AF9172",
"P c #B49474",
"I c #BB9A79",
"U c #C09E7B",
"Y c #C4A27F",
"T c #B8B5B2",
"R c #C6A481",
"E c #CAA782",
"W c #CDA985",
"Q c #D0AB85",
"! c #D2AE89",
"~ c #D6B18B",
"^ c #DBB58E",
"/ c #DEB790",
"( c #E2BB93",
") c #E9C097",
"_ c #EDC49A",
"` c #F0C69C",
"' c None",
/* pixels */
"''''''''''''''''''''''''''''''''''''''''''''''''",
"''''''''''''''''''''''''''''''''''''''''''''''''",
"''''''''''''''''''''''''''''''''''''''''''''''''",
"''''''''''''''''''''''''''''''''''''''''''''''''",
"''''''''''''''''''''''''''''''''''''''''''''''''",
"''''''''''''''''''''''''''''''''''''''''''''''''",
"''''''''''''''''''''''''''''''''''''''''''''''''",
"''''''''''''''''''''''''''''''''''''''''''''''''",
"''''''''''''''''''''''''''''''''''''''''''''''''",
"''''''''''''''''''''''''''''''''''''''''''''''''",
"''''''''''''''''''''''''''''''''''''''''''''''''",
"''''''''''''''''''''''''''''''''''''''''''''''''",
"''''''''''''''''''''''''''''''''''''''''''''''''",
"''''''''''''''''''''''''''''''''''''''''''''''''",
"''''''''''''''''''''''''''''''''''''''''''''''''",
"''''''''''''''''''''''''''''''''''''''''''''''''",
"''''''''''''''''''''''''''''''''''''''''''O'''''",
"''''''''''''''''''''''''''''''''''''''''''+'''''",
"''''''''''''''''''''''''''''''''2333''''''+'''''",
"'''''''''''''''''''''''''''''''0qq000''''O@'''''",
"''''''''''''''''''''''''''''''2qwww064'''@@'''''",
"'''''hCLYI''''''''''''''''''''0yye0e66'''@+'''''",
"'''''''''IQA''''''''''''''''''JQWDnBm9:'@@@'''''",
"''''''''''L!G''''''''''''''''I_`(RRIKh2-1*@'''''",
"'''''''''''K!''''''''''''''''R__~()RPv50zq*'''''",
"''''''''''''IW'''''''''''''''G(_^__~Ke6kccz4''''",
"'''''''''''''EI'''''''''''''O7~_^(_!C66zcccx3'''",
"''''''''''''''!'''''''''''O$50H_WQ_!V66xzcxc0'''",
"''''''''''''''R~'''''''''o$6yrgJZ(_(A90xkwxxw'''",
"'''''''''''''''(E''''''''#1rryteA)_(Nee07Syyw2''",
"'''''''''''''''R(R''''''@&6eytteyNDbery;jT9yl6''",
"''''''''''''''''/_WH''Kh#%58tytyyee%2ryau=5ly6''",
"''''''''''''''''K(_(((/s#5tyryyyrrr&*0y8@@0sre''",
"'''''''''''''''''K/__`!<*yyyyyyyyr8*#*8080ttrdH'",
"''''''''''''''''''FE//P$5ytyrre8e158@O$>>10e6>v'",
"'''''''''''''''''''MAGM#6yyteee5*%ey1#$%*&%%&#''",
"'''''''''''''''''''''''O5ytyeye5%1yye%OO+@#$@o''",
"'''''''''''''''''''''''.1yyyyye*%0ye* '$$$#O''''",
"''''''''''''''''''''''''&tttry8$1ye% '''$+''''''",
"''''''''''''''''''''''''+1tyyt1>ry6@o'''''''''''",
"'''''''''''''''''''''''''#10e6>0re;O''''''''''''",
"'''''''''''''''''''''''''.#&;7>65$O'''''''''''''",
"''''''''''''''''''''''''''<<pC,&+'''''''''''''''",
"''''''''''''''''''''''''''''''''''''''''''''''''",
"''''''''''''''''''''''''''''''''''''''''''''''''",
"''''''''''''''''''''''''''''''''''''''''''''''''",
"''''''''''''''''''''''''''''''''''''''''''''''''",
"''''''''''''''''''''''''''''''''''''''''''''''''"
};
