/* XPM */
static char *_13d7e568eab4a3be4bca3ce176c6794YKkXbkxugMqMrd1O[] = {
/* columns rows colors chars-per-pixel */
"48 48 142 2 ",
"   c #341F0C",
".  c #37220F",
"X  c #3B230E",
"o  c #372210",
"O  c #3E2612",
"+  c #3E2814",
"@  c #402710",
"#  c #432B14",
"$  c #482E17",
"%  c #46301A",
"&  c #4D331B",
"*  c #51361D",
"=  c #54381F",
"-  c #513720",
";  c #543A22",
":  c #5A3D23",
">  c #5E4126",
",  c #5E4329",
"<  c #624327",
"1  c #63452A",
"2  c #68472A",
"3  c #66492D",
"4  c #6B4A2D",
"5  c #744E2D",
"6  c #7A512C",
"7  c #664A30",
"8  c #6D4E31",
"9  c #704F31",
"0  c #6F5133",
"q  c #745334",
"w  c #7B5635",
"e  c #7D5937",
"r  c #795738",
"t  c #7C5A3A",
"y  c #805731",
"u  c #845A34",
"i  c #895D35",
"p  c #825E3C",
"a  c #895F39",
"s  c #8D6037",
"d  c #85613E",
"f  c #8A623D",
"g  c #91653D",
"h  c #95683F",
"j  c #856241",
"k  c #8C6541",
"l  c #8E6944",
"z  c #8D6A4A",
"x  c #916741",
"c  c #946A44",
"v  c #996D45",
"b  c #946D49",
"n  c #996F49",
"m  c #9D7147",
"M  c #96704C",
"N  c #9C724B",
"B  c #957353",
"V  c #9D7652",
"C  c #9E7955",
"Z  c #9B7A5C",
"A  c #A1764D",
"S  c #A4794F",
"D  c #A27750",
"F  c #A47B54",
"G  c #A97E55",
"H  c #A37D5A",
"J  c #A87F59",
"K  c #AB8056",
"L  c #A6815E",
"P  c #AC835A",
"I  c #B1865C",
"U  c #B5895E",
"Y  c #9F8063",
"T  c #A58263",
"R  c #AA8563",
"E  c #AE8966",
"W  c #A78B6F",
"Q  c #AD8A6B",
"!  c #B58C63",
"~  c #B88E63",
"^  c #B28D6B",
"/  c #B88F68",
"(  c #BA9066",
")  c #B5906D",
"_  c #BC936C",
"`  c #AE8E70",
"'  c #B59373",
"]  c #BA9673",
"[  c #BE9873",
"{  c #B3967B",
"}  c #B89778",
"|  c #B79A7E",
" . c #BD9B7A",
".. c #C19B75",
"X. c #C29E7B",
"o. c #C5A17D",
"O. c #C8A37F",
"+. c #B79A80",
"@. c #BC9F84",
"#. c #BEA286",
"$. c #C19F80",
"%. c #C4A383",
"&. c #C9A684",
"*. c #C4A689",
"=. c #C8A788",
"-. c #C6AA8D",
";. c #CBAB8C",
":. c #C5AB91",
">. c #CCAE91",
",. c #D0AF90",
"<. c #CEB093",
"1. c #CFB195",
"2. c #CDB197",
"3. c #CEB399",
"4. c #CFB59B",
"5. c #CFB69C",
"6. c #D1B293",
"7. c #D1B194",
"8. c #D1B295",
"9. c #D3B395",
"0. c #D5B597",
"q. c #D0B398",
"w. c #D1B498",
"e. c #D3B69B",
"r. c #D5B79B",
"t. c #D7B79A",
"y. c #D2B79E",
"u. c #D6B89B",
"i. c #D7B99C",
"p. c #D7BA9C",
"a. c #D5BA9F",
"s. c #D9BB9E",
"d. c #D9BC9F",
"f. c #D3B9A0",
"g. c #D6BBA2",
"h. c #D9BCA1",
"j. c #DABEA2",
"k. c #DCBFA2",
"l. c #D8BDA4",
"z. c #DEC1A4",
"x. c #DFC2A6",
"c. c #E0C3A7",
/* pixels */
":.2.2.3.q.4.4.4.e.5.f.f.g.g.h.l.l.g.h.g.g.g.r.g.e.5.w.4.2.2.2.<.2.>.:.-.-.-.-.#.-.%.#.#.#.#.#.{ ",
">.r.r.r.w.w.q.w.q.e.e.f.f.h.h.k.c.c.c.c.z.z.k.h.h.h.d.i.i.i.u.4.7.7.2.6.<.<.;.;.-.-.-.-.*.%.#.| ",
"#.:.-.-.;.>.>.7.q.t.t.i.i.r.s.r.i.r.i.g.h.s.h.h.d.i.u.r.u.6.2.6.<.<.;.;.;.;.-.-.-.%.%.%.#.#.o.{ ",
"+.*.*.=.=.;.-.>.>.,.,.,.7.s.r.t.r.r.r.r.q.7.,.,.7.r.0.6.6.6.<.;.>.;.;.;.-.&.&.%.%.%.o.#.X.X.{ W ",
"{ $.=.$.*.=.=.=.>.=.>.,.,.9.7.7.7.7.0.9.,.,.,.>.;.-.-.-.;.;.;.;.-.;.&.*.*.%.%.$.o.X.X.| { ' W Y ",
"{ $.@.$.%.%.=.=.=.=.;.;.;.;.6.,.,.6.,.,.,.,.;.;.;.=.&.%.%.%.%.%.%.%.%.%.%.X.@.X.| { ' ` Q W W Y ",
"`  . .$.$.$.$.%.&.&.=.=.;.;.;.;.;.;.;.;.;.=.=.=.&.*.%.%.%.%.|  . .} } ] ' ' ' ` ` ` Q Q R R R Y ",
"` } }  . . .X.$.X.$.&.X.&.&.&.&.&.=.&.&.&.&.&.&.%.o.%. . . . . .} ] ' ' ' ` Q ^ Q E R R T T T Z ",
"Q ' } ] [ [  .X.X.$.$.$.o.%.%.%.&.$.&.%.&. .%.X.X.X.X.X.[ } } ] ' ' ' ^ ^ Q Q E E R T T T L Z Z ",
"R ^ ) ' ' ] } } } [ [ X.X.X.X.X.X.X.X.X.X.X.X.X. .X...] } ] ' ) ) ) ^ ^ ^ Q E R R T T T H H Z B ",
"H ^ ^ ' ] } ..X.X.X.$.$.O.O.o.O.$.X.X. .X.[ ..] ] ] ' ] ' ) ) ^ ^ ^ E E E R T R H H H H Z C C z ",
"` } ..X.o.X.o.&.&.&.&.&.&.&.&.O.&.&.&.&.&.%.X.X. .] ' ' ) ^ ^ ^ E E E R R P T H H H C C C C V z ",
"R ' ] X.X.X.X.X.X.X.O.O.O.O.O.O.&.%.O.O.o.o.o.o.X.X.X.....) ) ^ R R R P P H H H H C V V V M M z ",
"Z J R ^ _ ....X.X.X.X.....o...O.X.X.o.X.X.....X...........] ] _ _ ^ E R H H H V F V V V N M M l ",
"V J J J R ! ] ............o...O.X.X...................] ..] / ] ) ( / ! ^ R P J V V M n M c b f ",
"B F H J J J R / ................................] _ _ _ / / / / ^ ! ! ! ! I R P P F D B M l l f ",
"H J D G G J J J / ..( ..............~ ......~ ..~ ....U ( ~ ~ ( ! ! ! I I I P K K K F S A m h t ",
"H J J F D G J G G ! ( ..U ..~ ......~ ..~ ....~ ~ ~ U ..~ ~ ! ! U I I P I P K K K K F S S A m h ",
"F J ! G D D G G F G U ( ..U _ _ ~ ..~ ....~ ( ~ ~ ..U U ! ! ! I I I P K H F S V S V A A A A A h ",
"D I J J A D D D D F G U ..U ( ( ~ ~ ~ U ~ ~ ~ ~ ~ U U U U ! I J F V N m v b v c h g h h h h h s ",
"D G J I A N A A A S S J ~ ~ ~ ~ ~ ~ ~ ~ ~ ~ U U U U U I I G A N v m v v v m h h g g g s d s i y ",
"A G G G A m A A A A S S I ~ U ~ ~ ~ U U U U U U U I I G A v A N m m v v h h h g g g s s i i i 6 ",
"A G G G m m A m A A A A G U U U U U U U U U U U U K S A v A v v m v v h h h g g g s s s i y u 6 ",
"m G G G n v m m m m m m N I I U U I U I U U K I K A n A N N N v v c v v h h g g s s s s i i u 6 ",
"m S F A c v v v n n n m n J P P I I I J J J J J A n n n n n v v v c h c h h g f d s e s i u 6 6 ",
"m S S N c c c c b v n n n D P P G I J J J J J N n n n b v c c c l h h f f f s s s s s s u u u 6 ",
"v A N x x c c c c b b c c b J J J G J J J G n n n b b b b c c c l l h f f f f d s e i u y y e 6 ",
"x v f k k k x c c k c c c b F F F F G G F N c c c c c c c k c k f l f f f f f d d e e s 6 e w 5 ",
"t d a f k k k k k x k c l l V F F D C F n z z z l l l x k x k k f f f d d d t d d d d s f f f t ",
"t a p a a j f f k j k k f k M C V V N B z k x k k k k k j j f f f f t l f f h l f g g g k h f d ",
"r u p p p p p a f d d j f j M M M N V z j k j k k j j j j d f p t t f l h l l f l f f f k k g t ",
"9 t t u p p p p p p p p d d z M M M b j j j j j p j j p p p t p l f l l f f f f f l f f f k f d ",
"9 w t w y t u t p t u p t p k z z z z p p p j t j t j t t t p z j j k f f f f j k f f d f d j t ",
"9 q w q w w r r t q t t t t j z z z j t t t t t r t t r r p j j j f d d d d t j d d f f d d d t ",
"4 9 9 q q q q q q q w w r r j j j j t r t t r t r r r q t j p j j t t d e w 5 5 0 q t t d j t t ",
"2 4 5 5 5 9 9 q 9 q 9 q 9 q j j j j q q q q q q q q 0 r p t p t t t r 0 8 4 8 4 4 3 4 0 t t t t ",
"1 4 2 2 5 4 4 4 8 9 8 8 8 9 t t p r 0 0 0 0 0 0 0 8 0 r t t t t t 0 4 4 2 2 2 2 2 2 1 1 0 r t 0 ",
"> 2 2 2 2 2 2 2 2 2 2 8 2 8 t t r q 8 8 4 8 4 4 7 7 0 r r r r 0 3 3 1 1 1 1 < < < < < > , 0 t 0 ",
": < < < < < 2 1 1 1 1 1 7 8 q q q 0 3 1 3 3 1 1 7 7 9 q q q 0 7 1 , < > < > > < > > < < , , 0 0 ",
"= : : > > : > > > > : , , 8 q q q 8 1 , 1 1 , , < 1 9 q q 0 7 : , > > > > > > = : : : : : : , 7 ",
"* = : : = : : : : : : : < 8 8 8 0 7 > , > > , , , , 8 8 8 1 = > > = : = : = : : : : : : = : : > ",
"$ * * = = * * = = = = = < 3 3 3 7 7 > * > & - > ; , 3 3 3 > = = = = = = = = = = = = = = = = = * ",
"$ * & $ & & * * * * * = , 1 1 1 , , > * & * * * & , , 3 , * & * * * & * & * & & * * * * & * * $ ",
"$ $ $ $ $ $ $ $ $ $ $ ; , , , , , , & & & % & & % * , , , & & & & & & & & & & & $ & $ & & & & $ ",
"@ @ $ @ # # # # + + + , , , ; , , > % % $ $ $ % $ & , > > % # % $ $ $ $ % $ $ $ $ $ $ $ $ $ $ + ",
"@ @ @ @ + + @ @ + + > , ; ; - - & > & + # # # + + % - - * $ + + @ @ # # # + # # # # + + + # # + ",
"X X @ @ . . X + + & , % - - & - & * % + O O + + + + % & & # @ X X + X + O O O O O O O O O X + X ",
"      X   . . + + % % % + % % + % % % O . . o o o o + % $ X .   . X . . . . . . . X . . X . . . "
};
